<svg width="20" height="12" viewBox="0 0 20 12" fill="none" xmlns="http://www.w3.org/2000/svg">
<path d="M1 6L0.292893 5.29289C-0.0976311 5.68342 -0.0976311 6.31658 0.292893 6.70711L1 6ZM5.29289 11.7071C5.68342 12.0976 6.31658 12.0976 6.70711 11.7071C7.09763 11.3166 7.09763 10.6834 6.70711 10.2929L5.29289 11.7071ZM6.70711 1.70711C7.09763 1.31658 7.09763 0.683417 6.70711 0.292893C6.31658 -0.0976311 5.68342 -0.0976311 5.29289 0.292893L6.70711 1.70711ZM19 7C19.5523 7 20 6.55228 20 6C20 5.44772 19.5523 5 19 5V7ZM0.292893 6.70711L5.29289 11.7071L6.70711 10.2929L1.70711 5.29289L0.292893 6.70711ZM1.70711 6.70711L6.70711 1.70711L5.29289 0.292893L0.292893 5.29289L1.70711 6.70711ZM19 5H1V7H19V5Z" fill="#6E667C"/>
</svg>
