<svg width="18" height="20" viewBox="0 0 18 20" fill="none" xmlns="http://www.w3.org/2000/svg">
<path d="M12 8C12 7.44772 11.5523 7 11 7C10.4477 7 10 7.44772 10 8H12ZM10 15C10 15.5523 10.4477 16 11 16C11.5523 16 12 15.5523 12 15H10ZM8 8C8 7.44772 7.55228 7 7 7C6.44772 7 6 7.44772 6 8H8ZM6 15C6 15.5523 6.44772 16 7 16C7.55228 16 8 15.5523 8 15H6ZM4.0918 18.7822L4.54579 17.8912L4.54579 17.8912L4.0918 18.7822ZM3.21799 17.9076L2.32698 18.3616H2.32698L3.21799 17.9076ZM14.7822 17.9076L15.6732 18.3616L14.7822 17.9076ZM13.9074 18.7822L13.4534 17.8912H13.4534L13.9074 18.7822ZM1 3C0.447715 3 0 3.44772 0 4C0 4.55228 0.447715 5 1 5V3ZM17 5C17.5523 5 18 4.55228 18 4C18 3.44772 17.5523 3 17 3V5ZM5.15224 2.23486L4.22836 1.85218L5.15224 2.23486ZM6.23438 1.15224L5.85169 0.228361L5.85169 0.228361L6.23438 1.15224ZM12.8477 2.23486L11.9238 2.61755V2.61755L12.8477 2.23486ZM11.7654 1.15224L12.1481 0.228361V0.228361L11.7654 1.15224ZM10 8V15H12V8H10ZM6 8V15H8V8H6ZM4 15.8V4H2V15.8H4ZM3 5H5V3H3V5ZM5 5H13V3H5V5ZM13 5H15V3H13V5ZM6.19691 18C5.62146 18 5.2498 17.9992 4.96686 17.9761C4.69554 17.9539 4.595 17.9163 4.54579 17.8912L3.63781 19.6732C4.016 19.8659 4.40906 19.9372 4.80396 19.9695C5.18725 20.0008 5.65444 20 6.19691 20V18ZM2 15.8C2 16.3435 1.99922 16.8113 2.03057 17.1949C2.06288 17.5902 2.13421 17.9833 2.32698 18.3616L4.10899 17.4536C4.08377 17.4041 4.04611 17.3034 4.02393 17.0319C4.00078 16.7487 4 16.3766 4 15.8H2ZM4.54579 17.8912C4.3585 17.7958 4.20531 17.6426 4.10899 17.4536L2.32698 18.3616C2.61416 18.9252 3.07245 19.3852 3.63781 19.6732L4.54579 17.8912ZM14 15.8031C14 16.3786 13.9992 16.75 13.9761 17.0328C13.9539 17.3038 13.9163 17.4043 13.8912 17.4536L15.6732 18.3616C15.8659 17.9835 15.9372 17.5906 15.9695 17.1958C16.0008 16.8126 16 16.3455 16 15.8031H14ZM11.8031 20C12.3455 20 12.8126 20.0008 13.1957 19.9695C13.5905 19.9372 13.9833 19.8659 14.3614 19.6732L13.4534 17.8912C13.4041 17.9164 13.3036 17.9539 13.0327 17.9761C12.75 17.9992 12.3786 18 11.8031 18V20ZM13.8912 17.4536C13.7955 17.6416 13.6418 17.7952 13.4534 17.8912L14.3614 19.6732C14.9257 19.3857 15.3855 18.9263 15.6732 18.3616L13.8912 17.4536ZM1 5H3V3H1V5ZM15 5H17V3H15V5ZM8 2H10V0H8V2ZM6 4C6 3.52037 6.00054 3.2108 6.01671 2.97389C6.03226 2.74599 6.05887 2.65919 6.07612 2.61755L4.22836 1.85218C4.09337 2.17808 4.04386 2.5079 4.02135 2.83772C3.99946 3.15852 4 3.54775 4 4H6ZM8 0C7.54773 0 7.15841 -0.00054121 6.8375 0.0213486C6.50766 0.0438484 6.17766 0.0933421 5.85169 0.228361L6.61706 2.07612C6.65864 2.0589 6.7455 2.03227 6.97362 2.01671C7.21067 2.00054 7.52038 2 8 2V0ZM6.07612 2.61755C6.1778 2.37208 6.37247 2.17743 6.61706 2.07612L5.85169 0.228361C5.11617 0.533026 4.53266 1.11754 4.22836 1.85218L6.07612 2.61755ZM14 4C14 3.54769 14.0005 3.15846 13.9786 2.83763C13.9561 2.50778 13.9065 2.17801 13.7715 1.85218L11.9238 2.61755C11.9411 2.65926 11.9677 2.74612 11.9832 2.97398C11.9994 3.21086 12 3.52043 12 4H14ZM10 2C10.4796 2 10.7893 2.00054 11.0262 2.01671C11.2542 2.03227 11.3411 2.05888 11.3827 2.07612L12.1481 0.228361C11.8221 0.0933574 11.4922 0.0438537 11.1624 0.0213497C10.8415 -0.000541568 10.4523 0 10 0V2ZM13.7715 1.85218C13.4672 1.1174 12.8834 0.532968 12.1481 0.228361L11.3827 2.07612C11.6274 2.17749 11.8222 2.37222 11.9238 2.61755L13.7715 1.85218ZM14 4V15.8031H16V4H14ZM11.8031 18H6.19691V20H11.8031V18Z" fill="#5200FF"/>
</svg>
