<svg width="22" height="25" viewBox="0 0 22 25" fill="none" xmlns="http://www.w3.org/2000/svg">
<path d="M1 9H21M1 9V20.0002C1 21.4004 1 22.1001 1.27248 22.6349C1.51217 23.1053 1.89434 23.4881 2.36475 23.7278C2.899 24 3.59874 24 4.99614 24H17.0039C18.4013 24 19.1 24 19.6342 23.7278C20.1046 23.4881 20.4881 23.1053 20.7278 22.6349C21 22.1006 21 21.4019 21 20.0045V9M1 9V8.00024C1 6.60011 1 5.89953 1.27248 5.36475C1.51217 4.89434 1.89434 4.51217 2.36475 4.27248C2.89953 4 3.60011 4 5.00024 4H6M21 9V7.99614C21 6.59874 21 5.899 20.7278 5.36475C20.4881 4.89434 20.1046 4.51217 19.6342 4.27248C19.0995 4 18.4004 4 17.0002 4H16M6 4H16M6 4V1.5M16 4V1.5M10.6875 19C10.8601 19 11 18.8601 11 18.6875V14.3125C11 14.1399 10.8601 14 10.6875 14H6.3125C6.13991 14 6 14.1399 6 14.3125V18.6875C6 18.8601 6.13991 19 6.3125 19H10.6875Z" stroke="#5200FF" stroke-width="2" stroke-linecap="round" stroke-linejoin="round"/>
</svg>
