<svg width="28" height="28" viewBox="0 0 28 28" fill="none" xmlns="http://www.w3.org/2000/svg">
<path d="M6.53288 23.2402L8.31083 21.8179L8.3239 21.8078C8.69457 21.5113 8.88161 21.3617 9.09029 21.255C9.27752 21.1594 9.47716 21.0897 9.68311 21.0475C9.91524 20.9998 10.157 20.9998 10.6424 20.9998H20.7703C22.0745 20.9998 22.7274 20.9998 23.226 20.7458C23.6651 20.5221 24.0222 20.1647 24.2459 19.7257C24.5 19.2271 24.5 18.5749 24.5 17.2707V8.39623C24.5 7.092 24.5 6.43891 24.2459 5.94027C24.0222 5.50122 23.6643 5.14453 23.2253 4.92082C22.7262 4.6665 22.0737 4.6665 20.7669 4.6665H7.23356C5.92677 4.6665 5.27289 4.6665 4.77376 4.92082C4.33472 5.14453 3.97802 5.50122 3.75432 5.94027C3.5 6.43939 3.5 7.09328 3.5 8.40007V21.7829C3.5 23.0262 3.5 23.6478 3.75487 23.967C3.97652 24.2447 4.31251 24.4063 4.66781 24.4059C5.07634 24.4054 5.56201 24.0169 6.53288 23.2402Z" stroke="white" stroke-width="2" stroke-linecap="round" stroke-linejoin="round"/>
</svg>
