<svg width="26" height="21" viewBox="0 0 26 21" fill="none" xmlns="http://www.w3.org/2000/svg">
<path d="M3.66634 15.8333H3.08301C2.11651 15.8333 1.33301 16.6168 1.33301 17.5833C1.33301 18.5498 2.11651 19.3333 3.08301 19.3333H22.9163C23.8828 19.3333 24.6663 18.5498 24.6663 17.5833C24.6663 16.6168 23.8828 15.8333 22.9163 15.8333H22.333M3.66634 15.8333H22.333M3.66634 15.8333V5.5669C3.66634 4.26011 3.66634 3.60623 3.92066 3.1071C4.14436 2.66805 4.50106 2.31136 4.9401 2.08765C5.43923 1.83334 6.09311 1.83334 7.3999 1.83334H18.5999C19.9067 1.83334 20.5592 1.83334 21.0583 2.08765C21.4973 2.31136 21.8552 2.66805 22.0789 3.1071C22.333 3.60574 22.333 4.25883 22.333 5.56306V15.8333" stroke="white" stroke-width="2" stroke-linecap="round" stroke-linejoin="round"/>
</svg>
