<svg width="16" height="18" viewBox="0 0 16 18" fill="none" xmlns="http://www.w3.org/2000/svg">
<path d="M9.66732 7.33333V13.1667M6.33398 7.33333V13.1667M3.00065 4V13.8333C3.00065 14.7668 3.00065 15.2331 3.18231 15.5897C3.3421 15.9033 3.59688 16.1587 3.91048 16.3185C4.26665 16.5 4.73315 16.5 5.66474 16.5H10.3366C11.2682 16.5 11.734 16.5 12.0901 16.3185C12.4037 16.1587 12.6594 15.9033 12.8192 15.5897C13.0007 15.2335 13.0007 14.7675 13.0007 13.8359V4M3.00065 4H4.66732M3.00065 4H1.33398M4.66732 4H11.334M4.66732 4C4.66732 3.22343 4.66732 2.83534 4.79418 2.52905C4.96334 2.12067 5.28758 1.79602 5.69596 1.62687C6.00225 1.5 6.39075 1.5 7.16732 1.5H8.83398C9.61055 1.5 9.99884 1.5 10.3051 1.62687C10.7135 1.79602 11.0379 2.12067 11.207 2.52905C11.3339 2.83534 11.334 3.22343 11.334 4M11.334 4H13.0007M13.0007 4H14.6673" stroke="#5200FF" stroke-width="1.5" stroke-linecap="round" stroke-linejoin="round"/>
</svg>
