<svg width="20" height="17" viewBox="0 0 20 17" fill="none" xmlns="http://www.w3.org/2000/svg">
<path d="M12 16C12 16.5523 12.4477 17 13 17C13.5523 17 14 16.5523 14 16H12ZM0 16C0 16.5523 0.447715 17 1 17C1.55228 17 2 16.5523 2 16H0ZM14.2929 10.2929C13.9024 10.6834 13.9024 11.3165 14.2929 11.7071C14.6834 12.0976 15.3166 12.0976 15.7071 11.7071L14.2929 10.2929ZM19.7071 7.70711C20.0976 7.31658 20.0976 6.68342 19.7071 6.29289C19.3165 5.90237 18.6834 5.90237 18.2929 6.29289L19.7071 7.70711ZM15.7071 6.29289C15.3166 5.90237 14.6834 5.90237 14.2929 6.29289C13.9024 6.68342 13.9024 7.31658 14.2929 7.70711L15.7071 6.29289ZM18.2929 11.7071C18.6834 12.0976 19.3165 12.0976 19.7071 11.7071C20.0976 11.3166 20.0976 10.6834 19.7071 10.2929L18.2929 11.7071ZM14 16C14 14.457 13.0619 13.1826 11.7973 12.3395C10.5258 11.4918 8.82674 11 7 11V13C8.48697 13 9.78793 13.4036 10.6879 14.0036C11.5949 14.6083 12 15.3338 12 16H14ZM7 11C5.17326 11 3.47422 11.4918 2.20266 12.3395C0.938089 13.1826 0 14.457 0 16H2C2 15.3338 2.40506 14.6083 3.31206 14.0036C4.21207 13.4036 5.51303 13 7 13V11ZM15.7071 11.7071L17.7071 9.70709L16.2929 8.29288L14.2929 10.2929L15.7071 11.7071ZM17.7071 9.70709L19.7071 7.70711L18.2929 6.29289L16.2929 8.29288L17.7071 9.70709ZM14.2929 7.70711L16.2929 9.70709L17.7071 8.29288L15.7071 6.29289L14.2929 7.70711ZM16.2929 9.70709L18.2929 11.7071L19.7071 10.2929L17.7071 8.29288L16.2929 9.70709ZM7 8C5.34315 8 4 6.65685 4 5H2C2 7.76142 4.23858 10 7 10V8ZM4 5C4 3.34315 5.34315 2 7 2V0C4.23858 0 2 2.23858 2 5H4ZM7 2C8.65685 2 10 3.34315 10 5H12C12 2.23858 9.76142 0 7 0V2ZM10 5C10 6.65685 8.65685 8 7 8V10C9.76142 10 12 7.76142 12 5H10Z" fill="#5200FF"/>
</svg>
