<svg width="16" height="14" viewBox="0 0 16 14" fill="none" xmlns="http://www.w3.org/2000/svg">
<path d="M2.28418 9.3999L1.85117 9.1499L2.28418 9.3999ZM10.0786 3.0999L9.6456 3.3499V3.3499L10.0786 3.0999ZM13.7159 9.3999L13.2829 9.6499L13.7159 9.3999ZM5.9221 3.09884L6.35511 3.34884L5.9221 3.09884ZM7.38964 1.12968L7.18628 0.672909V0.672909L7.38964 1.12968ZM8.61011 1.12968L8.81348 0.672909L8.61011 1.12968ZM1.92236 12.7137L1.62847 13.1182H1.62847L1.92236 12.7137ZM1.31211 11.6569L0.814849 11.7092L1.31211 11.6569ZM14.0775 12.7137L14.3714 13.1182L14.0775 12.7137ZM14.6879 11.6569L14.1906 11.6046V11.6046L14.6879 11.6569ZM8.03809 10H8.53809C8.53809 9.7239 8.31423 9.50004 8.03809 9.50004V10ZM8.03809 10.075L8.03906 10.575C8.31482 10.5745 8.53809 10.3508 8.53809 10.075H8.03809ZM7.96265 10.0752H7.46265C7.46265 10.208 7.51546 10.3353 7.60944 10.4291C7.70342 10.5229 7.83085 10.5754 7.96362 10.5752L7.96265 10.0752ZM7.96265 10V9.50004C7.6865 9.50004 7.46265 9.7239 7.46265 10H7.96265ZM8.5 4.75004C8.5 4.4739 8.27614 4.25004 8 4.25004C7.72386 4.25004 7.5 4.4739 7.5 4.75004H8.5ZM7.5 7.75004C7.5 8.02619 7.72386 8.25004 8 8.25004C8.27614 8.25004 8.5 8.02619 8.5 7.75004H7.5ZM9.6456 3.3499L13.2829 9.6499L14.1489 9.1499L10.5116 2.8499L9.6456 3.3499ZM6.35511 3.34884C6.70079 2.7501 6.94321 2.33122 7.1529 2.03443C7.3641 1.7355 7.49632 1.6295 7.59301 1.58645L7.18628 0.672909C6.83791 0.828013 6.57711 1.11639 6.33618 1.4574C6.09373 1.80055 5.82491 2.26717 5.48909 2.84884L6.35511 3.34884ZM10.5116 2.8499C10.1755 2.26771 9.90649 1.80085 9.66388 1.45755C9.42277 1.11637 9.16189 0.828031 8.81348 0.672909L8.40674 1.58645C8.50357 1.62957 8.6359 1.73564 8.84722 2.03467C9.05703 2.33157 9.29965 2.7507 9.6456 3.3499L10.5116 2.8499ZM7.59301 1.58645C7.85192 1.47118 8.14783 1.47118 8.40674 1.58645L8.81348 0.672909C8.29566 0.442364 7.70409 0.442364 7.18628 0.672909L7.59301 1.58645ZM4.3614 12.5C3.66993 12.5 3.18599 12.4995 2.82418 12.4663C2.45979 12.4329 2.30192 12.3714 2.21626 12.3092L1.62847 13.1182C1.93697 13.3423 2.31701 13.424 2.73279 13.4622C3.15115 13.5005 3.68965 13.5 4.3614 13.5V12.5ZM1.85117 9.1499C1.51504 9.73209 1.24522 10.1985 1.0692 10.5803C0.894272 10.9597 0.774983 11.3299 0.814849 11.7092L1.80937 11.6046C1.79829 11.4992 1.824 11.3316 1.97733 10.999C2.12956 10.6688 2.37125 10.2491 2.71719 9.6499L1.85117 9.1499ZM2.21626 12.3092C1.98689 12.1425 1.83898 11.8864 1.80937 11.6046L0.814849 11.7092C0.874108 12.273 1.16999 12.7851 1.62847 13.1182L2.21626 12.3092ZM11.6386 13.5C12.3104 13.5 12.8488 13.5005 13.2672 13.4622C13.6829 13.424 14.0629 13.3423 14.3714 13.1182L13.7836 12.3092C13.698 12.3714 13.5401 12.4329 13.1758 12.4663C12.814 12.4995 12.3301 12.5 11.6386 12.5V13.5ZM13.2829 9.6499C13.6288 10.2491 13.8705 10.6688 14.0227 10.999C14.176 11.3315 14.2017 11.4992 14.1906 11.6046L15.1851 11.7092C15.225 11.3299 15.1058 10.9598 14.9309 10.5803C14.7549 10.1985 14.4851 9.7321 14.1489 9.1499L13.2829 9.6499ZM14.3714 13.1182C14.8298 12.7851 15.1259 12.2731 15.1851 11.7092L14.1906 11.6046C14.161 11.8863 14.0131 12.1425 13.7836 12.3092L14.3714 13.1182ZM7.53809 10V10.075H8.53809V10H7.53809ZM8.03711 9.57504L7.96167 9.57519L7.96362 10.5752L8.03906 10.575L8.03711 9.57504ZM8.46265 10.0752V10H7.46265V10.0752H8.46265ZM7.96265 10.5H8.03809V9.50004H7.96265V10.5ZM7.5 4.75004V7.75004H8.5V4.75004H7.5ZM11.6386 12.5H4.3614V13.5H11.6386V12.5ZM2.71719 9.6499L6.35511 3.34884L5.48909 2.84884L1.85117 9.1499L2.71719 9.6499Z" fill="#FF0000"/>
</svg>
