<svg width="22" height="22" viewBox="0 0 22 22" fill="none" xmlns="http://www.w3.org/2000/svg">
<path d="M11.0003 14.5L14.5003 11M14.5003 11L11.0003 7.5M14.5003 11H1.66699M1.66699 5.45602V5.40023C1.66699 4.09344 1.66699 3.43955 1.92131 2.94043C2.14501 2.50138 2.50171 2.14469 2.94076 1.92098C3.43988 1.66666 4.09376 1.66666 5.40055 1.66666H16.6006C17.9073 1.66666 18.5598 1.66666 19.059 1.92098C19.498 2.14469 19.8559 2.50138 20.0796 2.94043C20.3337 3.43907 20.3337 4.09216 20.3337 5.39639V16.6042C20.3337 17.9084 20.3337 18.5606 20.0796 19.0592C19.8559 19.4982 19.498 19.8556 19.059 20.0793C18.5603 20.3333 17.9082 20.3333 16.6039 20.3333H5.39672C4.09249 20.3333 3.43939 20.3333 2.94076 20.0793C2.50171 19.8556 2.14501 19.4979 1.92131 19.0589C1.66699 18.5597 1.66699 17.9068 1.66699 16.6V16.5417" stroke="#5200FF" stroke-width="2" stroke-linecap="round" stroke-linejoin="round"/>
</svg>
