<svg width="36" height="24" viewBox="0 0 36 24" fill="none" xmlns="http://www.w3.org/2000/svg">
<path d="M3.97849 14.9647C6.94421 17.9131 12.1164 21.9999 18.0008 21.9999C23.8852 21.9999 29.0564 17.9131 32.0221 14.9647C32.8043 14.1871 33.1967 13.797 33.4457 13.0335C33.6234 12.4888 33.6234 11.5112 33.4457 10.9665C33.1967 10.203 32.8043 9.81284 32.0221 9.03518C29.0564 6.0868 23.8852 2 18.0008 2C12.1164 2 6.94421 6.08681 3.97849 9.03518C3.19572 9.81337 2.8043 10.2027 2.55515 10.9665C2.37745 11.5112 2.37745 12.4888 2.55515 13.0335C2.8043 13.7973 3.19572 14.1865 3.97849 14.9647Z" stroke="#5200FF" stroke-width="3" stroke-linecap="round" stroke-linejoin="round"/>
<path d="M14.6672 12C14.6672 13.8409 16.1595 15.3333 18.0005 15.3333C19.8414 15.3333 21.3338 13.8409 21.3338 12C21.3338 10.1591 19.8414 8.66667 18.0005 8.66667C16.1595 8.66667 14.6672 10.1591 14.6672 12Z" stroke="#5200FF" stroke-width="3" stroke-linecap="round" stroke-linejoin="round"/>
</svg>
