<svg width="26" height="18" viewBox="0 0 26 18" fill="none" xmlns="http://www.w3.org/2000/svg">
<path d="M2.48387 11.2235C4.70816 13.4348 8.58728 16.4999 13.0006 16.4999C17.4139 16.4999 21.2923 13.4348 23.5166 11.2235C24.1032 10.6403 24.3975 10.3477 24.5843 9.77515C24.7176 9.3666 24.7176 8.63342 24.5843 8.22488C24.3975 7.65226 24.1033 7.35963 23.5166 6.77638C21.2923 4.5651 17.4139 1.5 13.0006 1.5C8.58728 1.5 4.70816 4.5651 2.48387 6.77639C1.89679 7.36003 1.60322 7.65206 1.41636 8.22488C1.28309 8.63342 1.28309 9.3666 1.41636 9.77515C1.60322 10.348 1.89679 10.6399 2.48387 11.2235Z" stroke="#5200FF" stroke-width="2" stroke-linecap="round" stroke-linejoin="round"/>
<path d="M10.5004 9C10.5004 10.3807 11.6197 11.5 13.0004 11.5C14.3811 11.5 15.5004 10.3807 15.5004 9C15.5004 7.61929 14.3811 6.5 13.0004 6.5C11.6197 6.5 10.5004 7.61929 10.5004 9Z" stroke="#5200FF" stroke-width="2" stroke-linecap="round" stroke-linejoin="round"/>
</svg>
