<svg width="19" height="20" viewBox="0 0 19 20" fill="none" xmlns="http://www.w3.org/2000/svg">
<path d="M0.828538 8.75759C0.438013 9.14811 0.438013 9.78128 0.828538 10.1718C1.21906 10.5623 1.85223 10.5623 2.24275 10.1718L0.828538 8.75759ZM8.42994 2.5704L7.72283 1.8633V1.8633L8.42994 2.5704ZM15.8544 9.99521L16.5615 10.7023L15.8544 9.99521ZM7.89941 17.9502L8.60652 18.6573L7.89941 17.9502ZM2.94971 13.0005L3.65681 13.7076H3.65681L2.94971 13.0005ZM10.9047 5.0455L11.6118 5.75261L10.9047 5.0455ZM5.77824 13.7073C5.38772 14.0978 5.38772 14.731 5.77824 15.1215C6.16877 15.512 6.80193 15.512 7.19246 15.1215L5.77824 13.7073ZM13.3801 5.0455L12.673 5.75261L13.3801 5.0455ZM2.24275 10.1718L9.13704 3.27751L7.72283 1.8633L0.828538 8.75759L2.24275 10.1718ZM15.1473 9.2881L7.19231 17.2431L8.60652 18.6573L16.5615 10.7023L15.1473 9.2881ZM3.65681 13.7076L11.6118 5.75261L10.1976 4.33839L2.2426 12.2933L3.65681 13.7076ZM12.6725 6.813L5.77824 13.7073L7.19246 15.1215L14.0867 8.22722L12.6725 6.813ZM12.673 5.75261C12.9656 6.04514 12.9658 6.51975 12.6725 6.813L14.0867 8.22722C15.1603 7.15363 15.1615 5.41269 14.0872 4.33839L12.673 5.75261ZM11.6118 5.75261C11.9047 5.45972 12.3801 5.45972 12.673 5.75261L14.0872 4.3384C13.0133 3.26445 11.2715 3.26445 10.1976 4.3384L11.6118 5.75261ZM3.65715 17.2429C2.68071 16.2664 2.68063 14.6837 3.65681 13.7076L2.2426 12.2933C0.485116 14.0508 0.485702 16.8998 2.24294 18.6571L3.65715 17.2429ZM7.19231 17.2431C6.21607 18.2193 4.63353 18.2192 3.65715 17.2429L2.24294 18.6571C4.00022 20.4144 6.84909 20.4147 8.60652 18.6573L7.19231 17.2431ZM15.1475 3.27751C16.8072 4.93718 16.807 7.62831 15.1473 9.2881L16.5615 10.7023C19.0022 8.2616 19.0026 4.30414 16.5617 1.8633L15.1475 3.27751ZM9.13704 3.27751C10.7968 1.61778 13.4878 1.61778 15.1475 3.27751L16.5617 1.8633C14.1209 -0.577479 10.1636 -0.577479 7.72283 1.8633L9.13704 3.27751Z" fill="#9766FF"/>
</svg>
