<svg width="16" height="20" viewBox="0 0 16 20" fill="none" xmlns="http://www.w3.org/2000/svg">
<path d="M14.063 5.06298L14.7701 4.35588V4.35588L14.063 5.06298ZM10.9375 1.9375L10.2304 2.64461V2.64461L10.9375 1.9375ZM1.21799 17.9079L0.32698 18.3619H0.326981L1.21799 17.9079ZM4.19694 19V20H4.19694L4.19694 19ZM2.0918 18.7822L2.54579 17.8912L2.54579 17.8912L2.0918 18.7822ZM2.0918 1.21799L2.54579 2.10899L2.54579 2.10899L2.0918 1.21799ZM1.21799 2.0918L0.32698 1.63781L0.32698 1.63781L1.21799 2.0918ZM10.2168 1.29492L9.6943 2.14756V2.14756L10.2168 1.29492ZM9.63884 1.05526L9.87229 0.0828902L9.87229 0.08289L9.63884 1.05526ZM14.9443 6.36133L13.972 6.59477V6.59477L14.9443 6.36133ZM14.7046 5.78319L15.5572 5.2607L15.5572 5.26069L14.7046 5.78319ZM14.7822 17.9079L15.6732 18.3619L14.7822 17.9079ZM11.8031 19V18V19ZM13.9074 18.7822L14.3614 19.6732L14.3614 19.6732L13.9074 18.7822ZM12.1969 7V6V7ZM10.0918 6.78223L9.63781 7.67323L10.0918 6.78223ZM9.21799 5.90759L10.109 5.4536L9.21799 5.90759ZM15.0002 8C15.5525 8 16.0002 7.55228 16.0002 7C16.0002 6.44772 15.5525 6 15.0002 6V8ZM14.7701 4.35588L11.6446 1.23039L10.2304 2.64461L13.3559 5.77009L14.7701 4.35588ZM8.67471 0H4.2002V2H8.67471V0ZM0 4.2002V15.8002H2V4.2002H0ZM0 15.8002C0 16.3437 -0.000778079 16.8115 0.0305709 17.1951C0.0628776 17.5904 0.134207 17.9835 0.32698 18.3619L2.10899 17.4539C2.08378 17.4044 2.04612 17.3037 2.02393 17.0322C2.00078 16.7489 2 16.3768 2 15.8002H0ZM4.19694 18C3.62148 18 3.24981 17.9992 2.96687 17.9761C2.69554 17.9539 2.59501 17.9163 2.54579 17.8912L1.63781 19.6732C2.016 19.8659 2.40906 19.9372 2.80397 19.9695C3.18727 20.0008 3.65446 20 4.19694 20V18ZM0.326981 18.3619C0.614314 18.9258 1.07276 19.3853 1.63781 19.6732L2.54579 17.8912C2.35819 17.7956 2.20515 17.6426 2.10899 17.4539L0.326981 18.3619ZM4.2002 0C3.65663 0 3.18874 -0.000777125 2.80498 0.0305674C2.40962 0.0628602 2.01624 0.134156 1.63781 0.326981L2.54579 2.10899C2.59517 2.08383 2.69595 2.04613 2.9678 2.02393C3.25126 2.00078 3.62365 2 4.2002 2V0ZM2 4.2002C2 3.62365 2.00078 3.25126 2.02393 2.9678C2.04613 2.69595 2.08383 2.59517 2.10899 2.54579L0.32698 1.63781C0.134156 2.01625 0.0628601 2.40962 0.0305673 2.80498C-0.000777125 3.18874 0 3.65663 0 4.2002H2ZM1.63781 0.326981C1.07332 0.614601 0.614601 1.07332 0.32698 1.63781L2.10899 2.54579C2.20487 2.35763 2.35762 2.20487 2.54579 2.10899L1.63781 0.326981ZM11.6446 1.23039C11.3326 0.918418 11.0655 0.64216 10.7393 0.442281L9.6943 2.14756C9.77166 2.19497 9.85101 2.26522 10.2304 2.64461L11.6446 1.23039ZM8.67471 2C8.79858 2 8.90088 2.00001 8.9909 2.00083L9.0091 0.00091064C8.90813 -8.46386e-06 8.79598 0 8.67471 0V2ZM8.9909 2.00083C9.27046 2.00337 9.35228 2.01488 9.4054 2.02763L9.87229 0.08289C9.5804 0.0128138 9.30082 0.00356591 9.0091 0.00091064L8.9909 2.00083ZM10.7393 0.442282C10.4716 0.278209 10.1792 0.156564 9.87229 0.0828902L9.4054 2.02763C9.50667 2.05194 9.60415 2.09232 9.6943 2.14756L10.7393 0.442282ZM16 7.32568C16 7.20409 16 7.09174 15.999 6.99047L13.9991 7.00953C14 7.09947 14 7.20184 14 7.32568H16ZM15.999 6.99048C15.9962 6.69815 15.9866 6.41914 15.9167 6.12788L13.972 6.59477C13.9848 6.64838 13.9965 6.73087 13.9991 7.00952L15.999 6.99048ZM13.3559 5.77009C13.7344 6.14866 13.8043 6.22796 13.8519 6.30569L15.5572 5.26069C15.3575 4.93476 15.0833 4.66912 14.7701 4.35588L13.3559 5.77009ZM15.9167 6.12788C15.843 5.82087 15.7212 5.52832 15.5572 5.2607L13.8519 6.30569C13.9072 6.39596 13.9477 6.49364 13.972 6.59477L15.9167 6.12788ZM14 15.8036C14 16.379 13.9992 16.7505 13.9761 17.0332C13.9539 17.3041 13.9164 17.4046 13.8912 17.4539L15.6732 18.3619C15.8659 17.9838 15.9372 17.591 15.9695 17.1962C16.0008 16.8131 16 16.346 16 15.8036H14ZM11.8031 20C12.3455 20 12.8126 20.0008 13.1957 19.9695C13.5905 19.9372 13.9833 19.8659 14.3614 19.6732L13.4534 17.8912C13.4041 17.9164 13.3036 17.9539 13.0327 17.9761C12.75 17.9992 12.3786 18 11.8031 18V20ZM13.8912 17.4539C13.7956 17.6415 13.6421 17.7951 13.4534 17.8912L14.3614 19.6732C14.9254 19.3859 15.3853 18.9269 15.6732 18.3619L13.8912 17.4539ZM10 3.8V1.00087H8V3.8H10ZM12.1969 6C11.6215 6 11.2498 5.99922 10.9669 5.9761C10.6955 5.95393 10.595 5.9163 10.5458 5.89122L9.63781 7.67323C10.016 7.86593 10.4091 7.93718 10.804 7.96946C11.1873 8.00078 11.6544 8 12.1969 8V6ZM8 3.8C8 4.34354 7.99922 4.81127 8.03057 5.19486C8.06288 5.59018 8.13421 5.98326 8.32698 6.36158L10.109 5.4536C10.0838 5.4041 10.0461 5.30343 10.0239 5.03195C10.0008 4.74872 10 4.37656 10 3.8H8ZM10.5458 5.89122C10.3585 5.79579 10.2053 5.64264 10.109 5.4536L8.32698 6.36158C8.61415 6.92519 9.07245 7.38517 9.63781 7.67323L10.5458 5.89122ZM16 15.8036V7.32568H14V15.8036H16ZM4.19694 20L11.8031 20V18L4.19694 18L4.19694 20ZM15.0002 6H14.9991V8H15.0002V6ZM14.9991 6H12.1969V8H14.9991V6Z" fill="#5200FF"/>
</svg>
