<svg width="26" height="21" viewBox="0 0 26 21" fill="none" xmlns="http://www.w3.org/2000/svg">
<path d="M19.25 20C19.25 17.9289 16.4518 16.25 13 16.25C9.54822 16.25 6.75 17.9289 6.75 20M24.25 16.2505C24.25 14.7127 22.7074 13.3912 20.5 12.8125M1.75 16.2505C1.75 14.7127 3.29262 13.3912 5.5 12.8125M20.5 7.79513C21.2672 7.10848 21.75 6.11062 21.75 5C21.75 2.92893 20.0711 1.25 18 1.25C17.0396 1.25 16.1634 1.61107 15.5 2.20487M5.5 7.79513C4.73281 7.10848 4.25 6.11062 4.25 5C4.25 2.92893 5.92893 1.25 8 1.25C8.96044 1.25 9.83655 1.61107 10.5 2.20487M13 12.5C10.9289 12.5 9.25 10.8211 9.25 8.75C9.25 6.67893 10.9289 5 13 5C15.0711 5 16.75 6.67893 16.75 8.75C16.75 10.8211 15.0711 12.5 13 12.5Z" stroke="#5200FF" stroke-width="2" stroke-linecap="round" stroke-linejoin="round"/>
</svg>
