<svg width="18" height="18" viewBox="0 0 18 18" fill="none" xmlns="http://www.w3.org/2000/svg">
<path d="M9.75 8.16667C9.75 7.75245 9.41421 7.41667 9 7.41667C8.58579 7.41667 8.25 7.75245 8.25 8.16667H9.75ZM8.25 12.3333C8.25 12.7475 8.58579 13.0833 9 13.0833C9.41421 13.0833 9.75 12.7475 9.75 12.3333H8.25ZM9.0415 5.66667H9.7915C9.7915 5.25245 9.45572 4.91667 9.0415 4.91667V5.66667ZM9.0415 5.75L9.04298 6.5C9.45661 6.49919 9.7915 6.16364 9.7915 5.75H9.0415ZM8.9585 5.75016H8.2085C8.2085 5.94933 8.28772 6.14032 8.42869 6.28101C8.56966 6.42171 8.7608 6.50055 8.95997 6.50016L8.9585 5.75016ZM8.9585 5.66667V4.91667C8.54428 4.91667 8.2085 5.25245 8.2085 5.66667H8.9585ZM9 15.75C5.27208 15.75 2.25 12.7279 2.25 9H0.75C0.75 13.5563 4.44365 17.25 9 17.25V15.75ZM2.25 9C2.25 5.27208 5.27208 2.25 9 2.25V0.75C4.44365 0.75 0.75 4.44365 0.75 9H2.25ZM9 2.25C12.7279 2.25 15.75 5.27208 15.75 9H17.25C17.25 4.44365 13.5563 0.75 9 0.75V2.25ZM15.75 9C15.75 12.7279 12.7279 15.75 9 15.75V17.25C13.5563 17.25 17.25 13.5563 17.25 9H15.75ZM8.25 8.16667V12.3333H9.75V8.16667H8.25ZM8.2915 5.66667V5.75H9.7915V5.66667H8.2915ZM9.04003 5L8.95702 5.00016L8.95997 6.50016L9.04298 6.5L9.04003 5ZM9.7085 5.75016V5.66667H8.2085V5.75016H9.7085ZM8.9585 6.41667H9.0415V4.91667H8.9585V6.41667Z" fill="#0E0024"/>
</svg>
