<svg width="14" height="14" viewBox="0 0 14 14" fill="none" xmlns="http://www.w3.org/2000/svg">
<path d="M7.5 6.33333C7.5 6.05719 7.27614 5.83333 7 5.83333C6.72386 5.83333 6.5 6.05719 6.5 6.33333H7.5ZM6.5 9.66667C6.5 9.94281 6.72386 10.1667 7 10.1667C7.27614 10.1667 7.5 9.94281 7.5 9.66667H6.5ZM7.0332 4.33333H7.5332C7.5332 4.05719 7.30935 3.83333 7.0332 3.83333V4.33333ZM7.0332 4.4L7.03418 4.9C7.30994 4.89946 7.5332 4.67576 7.5332 4.4H7.0332ZM6.9668 4.40013H6.4668C6.4668 4.53291 6.51961 4.66023 6.61359 4.75403C6.70757 4.84783 6.835 4.90039 6.96778 4.90013L6.9668 4.40013ZM6.9668 4.33333V3.83333C6.69065 3.83333 6.4668 4.05719 6.4668 4.33333H6.9668ZM7 12.5C3.96243 12.5 1.5 10.0376 1.5 7H0.5C0.5 10.5899 3.41015 13.5 7 13.5V12.5ZM1.5 7C1.5 3.96243 3.96243 1.5 7 1.5V0.5C3.41015 0.5 0.5 3.41015 0.5 7H1.5ZM7 1.5C10.0376 1.5 12.5 3.96243 12.5 7H13.5C13.5 3.41015 10.5899 0.5 7 0.5V1.5ZM12.5 7C12.5 10.0376 10.0376 12.5 7 12.5V13.5C10.5899 13.5 13.5 10.5899 13.5 7H12.5ZM6.5 6.33333V9.66667H7.5V6.33333H6.5ZM6.5332 4.33333V4.4H7.5332V4.33333H6.5332ZM7.03222 3.9L6.96582 3.90013L6.96778 4.90013L7.03418 4.9L7.03222 3.9ZM7.4668 4.40013V4.33333H6.4668V4.40013H7.4668ZM6.9668 4.83333H7.0332V3.83333H6.9668V4.83333Z" fill="#6E667C"/>
</svg>
