<svg width="24" height="23" viewBox="0 0 24 23" fill="none" xmlns="http://www.w3.org/2000/svg">
<path d="M15.5 7.50008L10.8333 12.1667L8.5 9.83342M6.31083 18.8181L4.53288 20.2405C3.56201 21.0172 3.07634 21.4057 2.66781 21.4061C2.31251 21.4065 1.97652 21.245 1.75487 20.9673C1.5 20.648 1.5 20.0265 1.5 18.7831V5.40031C1.5 4.09352 1.5 3.43964 1.75432 2.94051C1.97802 2.50147 2.33472 2.14477 2.77376 1.92107C3.27289 1.66675 3.92677 1.66675 5.23356 1.66675H18.7669C20.0737 1.66675 20.7267 1.66675 21.2259 1.92107C21.6649 2.14477 22.0222 2.50147 22.2459 2.94051C22.5 3.43915 22.5 4.09224 22.5 5.39648V14.2709C22.5 15.5752 22.5 16.2273 22.2459 16.7259C22.0222 17.165 21.6651 17.5223 21.226 17.746C20.7274 18.0001 20.0751 18.0001 18.7708 18.0001H8.64298C8.15761 18.0001 7.91467 18.0001 7.68254 18.0477C7.47659 18.09 7.27752 18.1596 7.09029 18.2553C6.88007 18.3627 6.69124 18.5138 6.31509 18.8147L6.31083 18.8181Z" stroke="#0E0024" stroke-width="2" stroke-linecap="round" stroke-linejoin="round"/>
</svg>
