<svg width="24" height="23" viewBox="0 0 24 23" fill="none" xmlns="http://www.w3.org/2000/svg">
<path d="M6.31083 18.8181L6.93554 19.599L6.93926 19.596L6.31083 18.8181ZM4.53288 20.2405L3.90818 19.4596L3.90818 19.4596L4.53288 20.2405ZM1.75432 2.94051L0.863312 2.48652L1.75432 2.94051ZM2.77376 1.92107L2.31977 1.03006L2.77376 1.92107ZM2.66781 21.4061L2.66888 22.4061H2.66888L2.66781 21.4061ZM1.75487 20.9673L2.53641 20.3434L2.53641 20.3434L1.75487 20.9673ZM7.68254 18.0477L7.48149 17.0681H7.48149L7.68254 18.0477ZM6.31509 18.8147L5.69039 18.0338L5.68666 18.0368L6.31509 18.8147ZM7.09029 18.2553L6.63534 17.3648H6.63534L7.09029 18.2553ZM22.2459 16.7259L21.3549 16.272V16.272L22.2459 16.7259ZM21.226 17.746L21.68 18.637L21.226 17.746ZM22.2459 2.94051L21.3549 3.3945V3.3945L22.2459 2.94051ZM21.2259 1.92107L21.6799 1.03006V1.03006L21.2259 1.92107ZM16.2071 8.20719C16.5976 7.81666 16.5976 7.1835 16.2071 6.79297C15.8166 6.40245 15.1834 6.40245 14.7929 6.79297L16.2071 8.20719ZM10.8333 12.1667L10.1262 12.8739C10.3138 13.0614 10.5681 13.1667 10.8333 13.1667C11.0985 13.1667 11.3529 13.0614 11.5404 12.8739L10.8333 12.1667ZM9.20711 9.12631C8.81658 8.73578 8.18342 8.73578 7.79289 9.12631C7.40237 9.51683 7.40237 10.15 7.79289 10.5405L9.20711 9.12631ZM5.68614 18.0372L3.90818 19.4596L5.15757 21.0213L6.93553 19.599L5.68614 18.0372ZM2.5 18.7831V5.40031H0.5V18.7831H2.5ZM5.23356 2.66675H18.7669V0.666748H5.23356V2.66675ZM2.5 5.40031C2.5 4.73042 2.50078 4.288 2.52847 3.94894C2.55522 3.62149 2.602 3.47954 2.64532 3.3945L0.863312 2.48652C0.652322 2.90061 0.571943 3.33516 0.535109 3.78613C0.499223 4.22549 0.5 4.76341 0.5 5.40031H2.5ZM5.23356 0.666748C4.59666 0.666748 4.05874 0.665971 3.61938 0.701857C3.16841 0.738691 2.73386 0.81907 2.31977 1.03006L3.22775 2.81207C3.31279 2.76874 3.45475 2.72196 3.7822 2.69522C4.12126 2.66753 4.56368 2.66675 5.23356 2.66675V0.666748ZM2.64532 3.3945C2.77316 3.14362 2.97687 2.9399 3.22775 2.81207L2.31977 1.03006C1.69257 1.34964 1.18289 1.85931 0.863312 2.48652L2.64532 3.3945ZM3.90818 19.4596C3.40719 19.8604 3.08484 20.117 2.83797 20.2802C2.57559 20.4537 2.56152 20.4062 2.66673 20.4061L2.66888 22.4061C3.18263 22.4056 3.61567 22.1636 3.94097 21.9486C4.28178 21.7233 4.6877 21.3972 5.15757 21.0213L3.90818 19.4596ZM0.5 18.7831C0.5 19.3849 0.499006 19.9054 0.535959 20.3122C0.571239 20.7006 0.652861 21.1897 0.973325 21.5911L2.53641 20.3434C2.60201 20.4256 2.55619 20.4443 2.52776 20.1313C2.50099 19.8366 2.5 19.4247 2.5 18.7831H0.5ZM2.66673 20.4061C2.61608 20.4062 2.56814 20.3832 2.53641 20.3434L0.973323 21.5911C1.3849 22.1067 2.00894 22.4068 2.66888 22.4061L2.66673 20.4061ZM8.64298 17.0001C8.1977 17.0001 7.8361 16.9954 7.48149 17.0681L7.88358 19.0273C7.99323 19.0048 8.11752 19.0001 8.64298 19.0001V17.0001ZM6.93926 19.596L6.94352 19.5925L5.68666 18.0368L5.6824 18.0402L6.93926 19.596ZM6.93979 19.5955C7.34712 19.2697 7.44633 19.1963 7.54525 19.1458L6.63534 17.3648C6.31381 17.529 6.03536 17.7578 5.6904 18.0338L6.93979 19.5955ZM7.48149 17.0681C7.18782 17.1284 6.90329 17.2279 6.63534 17.3648L7.54525 19.1458C7.65174 19.0914 7.76536 19.0516 7.88358 19.0273L7.48149 17.0681ZM21.5 14.2709C21.5 14.9395 21.4992 15.3808 21.4716 15.719C21.4449 16.0455 21.3982 16.187 21.3549 16.272L23.1369 17.1799C23.3477 16.7662 23.4281 16.3324 23.4649 15.882C23.5008 15.4434 23.5 14.9065 23.5 14.2709H21.5ZM18.7708 19.0001C19.4065 19.0001 19.9434 19.0009 20.382 18.965C20.8324 18.9282 21.2663 18.8478 21.68 18.637L20.772 16.855C20.6871 16.8983 20.5456 16.945 20.219 16.9716C19.8808 16.9993 19.4395 17.0001 18.7708 17.0001V19.0001ZM21.3549 16.272C21.227 16.523 21.0228 16.7272 20.772 16.855L21.68 18.637C22.3074 18.3174 22.8174 17.807 23.1369 17.1799L21.3549 16.272ZM23.5 5.39648C23.5 4.76085 23.5008 4.22375 23.4649 3.78495C23.4281 3.33452 23.3478 2.90033 23.1369 2.48652L21.3549 3.3945C21.3981 3.47933 21.4449 3.621 21.4716 3.94784C21.4992 4.2863 21.5 4.72787 21.5 5.39648H23.5ZM18.7669 2.66675C19.4368 2.66675 19.879 2.66753 20.2178 2.69522C20.5449 2.72195 20.6867 2.76869 20.7719 2.81207L21.6799 1.03006C21.2659 0.819121 20.8316 0.738708 20.3807 0.70186C19.9415 0.66597 19.4038 0.666748 18.7669 0.666748V2.66675ZM23.1369 2.48652C22.8171 1.85875 22.3065 1.34935 21.6799 1.03006L20.7719 2.81207C21.0233 2.94019 21.2274 3.14418 21.3549 3.3945L23.1369 2.48652ZM14.7929 6.79297L10.1262 11.4596L11.5404 12.8739L16.2071 8.20719L14.7929 6.79297ZM11.5404 11.4596L9.20711 9.12631L7.79289 10.5405L10.1262 12.8739L11.5404 11.4596ZM21.5 5.39648V14.2709H23.5V5.39648H21.5ZM18.7708 17.0001H8.64298V19.0001H18.7708V17.0001Z" fill="#0E0024"/>
</svg>
