<svg width="24" height="22" viewBox="0 0 24 22" fill="none" xmlns="http://www.w3.org/2000/svg">
<path d="M22.5 20.3334L21.861 21.1026C22.1592 21.3504 22.5738 21.4034 22.9248 21.2387C23.2759 21.074 23.5 20.7212 23.5 20.3334H22.5ZM18.6115 17.1029L19.2505 16.3337L19.2505 16.3337L18.6115 17.1029ZM5.38851 12.436L4.74949 11.6668L4.74942 11.6669L5.38851 12.436ZM1.5 15.6671H0.5C0.5 16.0549 0.724166 16.4077 1.0752 16.5724C1.42624 16.7371 1.84085 16.684 2.13909 16.4362L1.5 15.6671ZM16.6667 7.33342H21.3333V5.33342H16.6667V7.33342ZM21.3333 7.33342C21.4254 7.33342 21.5 7.40803 21.5 7.50008H23.5C23.5 6.30346 22.5299 5.33342 21.3333 5.33342V7.33342ZM21.5 7.50008V20.3334H23.5V7.50008H21.5ZM23.139 19.5642L19.2505 16.3337L17.9725 17.872L21.861 21.1026L23.139 19.5642ZM19.2505 16.3337C18.8613 16.0104 18.3707 15.8334 17.8652 15.8334V17.8334C17.9044 17.8334 17.9427 17.8473 17.9725 17.8721L19.2505 16.3337ZM17.8652 15.8334H8.5V17.8334H17.8652V15.8334ZM8.5 15.8334C8.40795 15.8334 8.33333 15.7588 8.33333 15.6667H6.33333C6.33333 16.8634 7.30338 17.8334 8.5 17.8334V15.8334ZM8.33333 15.6667V12.1667H6.33333V15.6667H8.33333ZM15.5 2.66675C15.592 2.66675 15.6667 2.74137 15.6667 2.83341H17.6667C17.6667 1.6368 16.6966 0.666748 15.5 0.666748V2.66675ZM15.6667 2.83341V6.33342H17.6667V2.83341H15.6667ZM15.6667 6.33342V11.0001H17.6667V6.33342H15.6667ZM15.6667 11.0001C15.6667 11.0921 15.592 11.1667 15.5 11.1667V13.1667C16.6966 13.1667 17.6667 12.1967 17.6667 11.0001H15.6667ZM15.5 11.1667H7.33333V13.1667H15.5V11.1667ZM7.33333 11.1667H6.13477V13.1667H7.33333V11.1667ZM6.13477 11.1667C5.62969 11.1667 5.139 11.3432 4.74949 11.6668L6.02753 13.2052C6.05695 13.1808 6.09521 13.1667 6.13477 13.1667V11.1667ZM4.74942 11.6669L0.860908 14.898L2.13909 16.4362L6.0276 13.2052L4.74942 11.6669ZM2.5 15.6671V2.83341H0.5V15.6671H2.5ZM2.5 2.83341C2.5 2.74137 2.57462 2.66675 2.66667 2.66675V0.666748C1.47005 0.666748 0.5 1.6368 0.5 2.83341H2.5ZM2.66667 2.66675H15.5V0.666748H2.66667V2.66675Z" fill="white"/>
</svg>
