<svg width="26" height="26" viewBox="0 0 26 26" fill="none" xmlns="http://www.w3.org/2000/svg">
<path d="M7.38721 22.7522L7.88681 21.8859L7.88679 21.8859L7.38721 22.7522ZM6.53006 22.6564L6.84629 23.6051H6.84629L6.53006 22.6564ZM3.64697 23.6174L3.33075 22.6687C3.32043 22.6722 3.31018 22.6758 3.29998 22.6795L3.64697 23.6174ZM2.38232 22.3528L1.43356 22.0366L1.42966 22.0488L2.38232 22.3528ZM3.34335 19.4697L2.39467 19.1535L2.39467 19.1535L3.34335 19.4697ZM3.24774 18.6123L2.38148 19.1119L2.38149 19.1119L3.24774 18.6123ZM3.43047 19.1432L2.4328 19.075H2.4328L3.43047 19.1432ZM3.25143 18.6187L2.38518 19.1183L2.38519 19.1184L3.25143 18.6187ZM3.41026 18.9336L2.4464 19.2L2.4464 19.2L3.41026 18.9336ZM3.63943 23.6202L3.95567 24.5689C3.96598 24.5654 3.97623 24.5618 3.98642 24.5581L3.63943 23.6202ZM2.52881 23.8509L2.8647 22.909L2.86469 22.909L2.52881 23.8509ZM2.38111 22.3566L3.32988 22.6729L3.33378 22.6606L2.38111 22.3566ZM2.14923 23.4717L1.20732 23.8076L1.20733 23.8076L2.14923 23.4717ZM7.38204 22.7492L6.88243 23.6155L6.88246 23.6155L7.38204 22.7492ZM7.06616 22.5898L6.79973 23.5537L6.79975 23.5537L7.06616 22.5898ZM6.85699 22.5685L6.78877 21.5708L6.85699 22.5685ZM13 13V12C12.4477 12 12 12.4477 12 13H13ZM13.0025 13L14.0022 13.0234C14.0085 12.7542 13.906 12.4938 13.7178 12.3012C13.5297 12.1086 13.2718 12 13.0025 12V13ZM13.0024 13.0025L12.9785 14.0022C13.2438 14.0086 13.5006 13.9092 13.6926 13.7261C13.8846 13.543 13.996 13.2911 14.0022 13.0259L13.0024 13.0025ZM13 13.0024H12C12 13.5454 12.4333 13.9892 12.9761 14.0022L13 13.0024ZM18 13V12C17.4477 12 17 12.4477 17 13H18ZM18.0025 13L19.0022 13.0234C19.0085 12.7542 18.906 12.4938 18.7178 12.3012C18.5297 12.1086 18.2718 12 18.0025 12V13ZM18.0024 13.0025L17.9785 14.0022C18.2438 14.0086 18.5006 13.9092 18.6926 13.7261C18.8846 13.543 18.996 13.2911 19.0022 13.0259L18.0024 13.0025ZM18 13.0024H17C17 13.5454 17.4333 13.9892 17.9761 14.0022L18 13.0024ZM8 13V12C7.44772 12 7 12.4477 7 13H8ZM8.0025 13L9.00223 13.0234C9.00852 12.7542 8.90598 12.4938 8.71782 12.3012C8.52965 12.1086 8.27177 12 8.0025 12V13ZM8.00244 13.0025L7.97852 14.0022C8.24376 14.0086 8.50065 13.9092 8.69264 13.7261C8.88462 13.543 8.99597 13.2911 9.00217 13.0259L8.00244 13.0025ZM8 13.0024H7C7 13.5454 7.43327 13.9892 7.97608 14.0022L8 13.0024ZM12.9996 23.2499C11.1357 23.2499 9.39081 22.7534 7.88681 21.8859L6.88761 23.6185C8.68733 24.6564 10.7756 25.2499 12.9996 25.2499V23.2499ZM6.21383 21.7077L3.33075 22.6687L3.9632 24.5661L6.84629 23.6051L6.21383 21.7077ZM3.33101 22.669L4.29204 19.786L2.39467 19.1535L1.43364 22.0366L3.33101 22.669ZM4.114 18.1127C3.24659 16.6087 2.75 14.8639 2.75 13H0.75C0.75 15.2239 1.34352 17.3122 2.38148 19.1119L4.114 18.1127ZM2.75 13C2.75 7.33908 7.33908 2.75 13 2.75V0.75C6.23451 0.75 0.75 6.23451 0.75 13H2.75ZM13 2.75C18.6609 2.75 23.25 7.33908 23.25 13H25.25C25.25 6.23451 19.7655 0.75 13 0.75V2.75ZM23.25 13C23.25 18.6609 18.6605 23.2499 12.9996 23.2499V25.2499C19.765 25.2499 25.25 19.7655 25.25 13H23.25ZM4.29204 19.786C4.33137 19.668 4.41202 19.447 4.42814 19.2114L2.4328 19.075C2.43637 19.0227 2.44614 18.9918 2.44213 19.0062C2.43993 19.0141 2.43562 19.0286 2.42724 19.0547C2.41885 19.0808 2.40856 19.1118 2.39467 19.1535L4.29204 19.786ZM2.38149 19.1119L2.38518 19.1183L4.11768 18.1191L4.11399 18.1127L2.38149 19.1119ZM2.38519 19.1184C2.40873 19.1592 2.42646 19.1899 2.44145 19.2165C2.45642 19.2429 2.4649 19.2586 2.46985 19.2681C2.48054 19.2887 2.46237 19.2577 2.4464 19.2L4.37412 18.6672C4.3107 18.4377 4.17841 18.2244 4.11767 18.1191L2.38519 19.1184ZM4.42814 19.2114C4.44024 19.0345 4.42643 18.8564 4.37412 18.6672L2.4464 19.2C2.44168 19.1829 2.43668 19.159 2.43405 19.131C2.43147 19.1035 2.43222 19.0833 2.4328 19.075L4.42814 19.2114ZM3.29998 22.6795L3.29244 22.6823L3.98642 24.5581L3.99396 24.5553L3.29998 22.6795ZM3.3232 22.6715C3.16941 22.7228 3.04567 22.764 2.93868 22.7977C2.83103 22.8315 2.75727 22.8523 2.70442 22.8647C2.64977 22.8775 2.64289 22.8752 2.66516 22.8743C2.69228 22.8733 2.76764 22.8744 2.8647 22.909L2.19292 24.7928C2.57789 24.9301 2.94355 24.8629 3.16126 24.8118C3.39317 24.7574 3.67182 24.6635 3.95567 24.5689L3.3232 22.6715ZM1.42966 22.0488L1.42845 22.0526L3.33378 22.6606L3.33499 22.6568L1.42966 22.0488ZM1.43243 22.0404C1.33736 22.3256 1.24312 22.6052 1.18851 22.8377C1.13733 23.0557 1.06985 23.4221 1.20732 23.8076L3.09113 23.1358C3.12581 23.2331 3.12676 23.3084 3.12575 23.3352C3.12492 23.3572 3.12262 23.35 3.13555 23.2949C3.14807 23.2416 3.16901 23.1673 3.20306 23.0592C3.23689 22.9516 3.27831 22.8273 3.3298 22.6728L1.43243 22.0404ZM2.86469 22.909C2.96963 22.9464 3.05294 23.0287 3.09113 23.1358L1.20733 23.8076C1.37154 24.2681 1.73458 24.6293 2.19293 24.7928L2.86469 22.909ZM7.88679 21.8859L7.88162 21.883L6.88246 23.6155L6.88763 23.6185L7.88679 21.8859ZM7.88166 21.883C7.77555 21.8218 7.56222 21.6895 7.33257 21.626L6.79975 23.5537C6.74215 23.5378 6.71129 23.5197 6.73191 23.5304C6.74151 23.5354 6.75724 23.5439 6.78385 23.5589C6.8105 23.574 6.84142 23.5918 6.88243 23.6155L7.88166 21.883ZM6.84629 23.6051C6.88849 23.591 6.91974 23.5806 6.94653 23.5719C6.97321 23.5633 6.98814 23.5588 6.99656 23.5565C7.01287 23.5519 6.98047 23.5624 6.92521 23.5662L6.78877 21.5708C6.55171 21.587 6.32508 21.6706 6.21383 21.7077L6.84629 23.6051ZM7.33259 21.626C7.15445 21.5767 6.97758 21.5579 6.78877 21.5708L6.92521 23.5662C6.91129 23.5671 6.88842 23.5675 6.86035 23.5646C6.83242 23.5618 6.81109 23.5568 6.79973 23.5537L7.33259 21.626ZM13 14H13.0025V12H13V14ZM12.0028 12.9766L12.0027 12.9791L14.0022 13.0259L14.0022 13.0234L12.0028 12.9766ZM13.0264 12.0028L13.0239 12.0027L12.9761 14.0022L12.9785 14.0022L13.0264 12.0028ZM14 13.0024V13H12V13.0024H14ZM18 14H18.0025V12H18V14ZM17.0028 12.9766L17.0027 12.9791L19.0022 13.0259L19.0022 13.0234L17.0028 12.9766ZM18.0264 12.0028L18.0239 12.0027L17.9761 14.0022L17.9785 14.0022L18.0264 12.0028ZM19 13.0024V13H17V13.0024H19ZM8 14H8.0025V12H8V14ZM7.00277 12.9766L7.00271 12.9791L9.00217 13.0259L9.00223 13.0234L7.00277 12.9766ZM8.02636 12.0028L8.02392 12.0027L7.97608 14.0022L7.97852 14.0022L8.02636 12.0028ZM9 13.0024V13H7V13.0024H9Z" fill="#5200FF"/>
</svg>
