<svg width="34" height="34" viewBox="0 0 34 34" fill="none" xmlns="http://www.w3.org/2000/svg">
<path d="M9.51628 30.0029L10.2657 28.7035L10.2656 28.7035L9.51628 30.0029ZM8.37341 29.8752L8.84775 31.2982H8.84775L8.37341 29.8752ZM4.5293 31.1565L4.05496 29.7335C4.03949 29.7387 4.02411 29.7441 4.00881 29.7497L4.5293 31.1565ZM2.8431 29.4704L1.42007 28.9961C1.41804 29.0022 1.41605 29.0083 1.4141 29.0144L2.8431 29.4704ZM4.12447 25.6263L2.70145 25.152L2.70145 25.152L4.12447 25.6263ZM3.99699 24.4831L2.6976 25.2325L2.69761 25.2325L3.99699 24.4831ZM4.24062 25.1909L2.74412 25.0886L2.74412 25.0886L4.24062 25.1909ZM4.00191 24.4917L2.70253 25.2411L2.70255 25.2411L4.00191 24.4917ZM4.21368 24.9114L2.76789 25.311L2.76789 25.311L4.21368 24.9114ZM4.51924 31.1603L4.9936 32.5833C5.00906 32.5781 5.02444 32.5727 5.03973 32.5671L4.51924 31.1603ZM3.03841 31.4678L3.54224 30.055L3.54223 30.055L3.03841 31.4678ZM2.84149 29.4755L4.26451 29.9498C4.26654 29.9437 4.26853 29.9376 4.27049 29.9315L2.84149 29.4755ZM2.53231 30.9623L1.11945 31.4661H1.11945L2.53231 30.9623ZM9.50939 29.999L8.75997 31.2983L8.76002 31.2984L9.50939 29.999ZM9.08822 29.7865L8.68857 31.2322L8.6886 31.2322L9.08822 29.7865ZM8.80932 29.758L8.70698 28.2615L8.80932 29.758ZM17 17V15.5C16.1716 15.5 15.5 16.1716 15.5 17H17ZM17.0033 17L18.5029 17.035C18.5124 16.6313 18.3586 16.2407 18.0763 15.9518C17.7941 15.6629 17.4072 15.5 17.0033 15.5V17ZM17.0033 17.0033L16.9674 18.5029C17.3652 18.5124 17.7506 18.3634 18.0385 18.0888C18.3265 17.8141 18.4935 17.4362 18.5028 17.0384L17.0033 17.0033ZM17 17.0033H15.5C15.5 17.8177 16.1499 18.4833 16.9641 18.5028L17 17.0033ZM23.6667 17V15.5C22.8382 15.5 22.1667 16.1716 22.1667 17H23.6667ZM23.67 17L25.1696 17.035C25.179 16.6313 25.0252 16.2407 24.743 15.9518C24.4607 15.6629 24.0739 15.5 23.67 15.5V17ZM23.6699 17.0033L23.634 18.5029C24.0319 18.5124 24.4172 18.3634 24.7052 18.0888C24.9932 17.8141 25.1602 17.4362 25.1695 17.0384L23.6699 17.0033ZM23.6667 17.0033H22.1667C22.1667 17.8177 22.8166 18.4833 23.6308 18.5028L23.6667 17.0033ZM10.3333 17V15.5C9.50491 15.5 8.83333 16.1716 8.83333 17H10.3333ZM10.3367 17L11.8363 17.035C11.8457 16.6313 11.6919 16.2407 11.4096 15.9518C11.1274 15.6629 10.7406 15.5 10.3367 15.5V17ZM10.3366 17.0033L10.3007 18.5029C10.6986 18.5124 11.0839 18.3634 11.3719 18.0888C11.6599 17.8141 11.8269 17.4362 11.8362 17.0384L10.3366 17.0033ZM10.3333 17.0033H8.83333C8.83333 17.8177 9.48324 18.4833 10.2975 18.5028L10.3333 17.0033ZM16.9994 30.4999C14.5442 30.4999 12.2464 29.8459 10.2657 28.7035L8.76688 31.3023C11.1911 32.7005 14.0042 33.4999 16.9994 33.4999V30.4999ZM7.89907 28.4521L4.05496 29.7335L5.00364 32.5796L8.84775 31.2982L7.89907 28.4521ZM4.26612 29.9448L5.5475 26.1006L2.70145 25.152L1.42007 28.9961L4.26612 29.9448ZM5.29637 23.7337C4.15404 21.753 3.5 19.4552 3.5 17H0.5C0.5 19.9952 1.29944 22.8083 2.6976 25.2325L5.29637 23.7337ZM3.5 17C3.5 9.54416 9.54416 3.5 17 3.5V0.5C7.8873 0.5 0.5 7.8873 0.5 17H3.5ZM17 3.5C24.4558 3.5 30.5 9.54416 30.5 17H33.5C33.5 7.8873 26.1127 0.5 17 0.5V3.5ZM30.5 17C30.5 24.4558 24.4553 30.4999 16.9994 30.4999V33.4999C26.112 33.4999 33.5 26.1128 33.5 17H30.5ZM5.54749 26.1006C5.59734 25.9511 5.71386 25.6335 5.73713 25.2933L2.74412 25.0886C2.74993 25.0035 2.76593 24.9504 2.76228 24.9635C2.76017 24.9711 2.75515 24.9881 2.7443 25.0219C2.73344 25.0558 2.71999 25.0963 2.70145 25.152L5.54749 26.1006ZM2.69761 25.2325L2.70253 25.2411L5.30129 23.7423L5.29637 23.7337L2.69761 25.2325ZM2.70255 25.2411C2.73403 25.2957 2.75728 25.336 2.77685 25.3706C2.79638 25.4052 2.80659 25.4241 2.81188 25.4343C2.82364 25.4569 2.79359 25.404 2.76789 25.311L5.65947 24.5118C5.56782 24.1802 5.3771 23.8737 5.30127 23.7422L2.70255 25.2411ZM5.73713 25.2933C5.75443 25.0402 5.73465 24.7838 5.65947 24.5118L2.76789 25.311C2.75916 25.2795 2.75061 25.2379 2.74613 25.1902C2.74173 25.1433 2.74284 25.1073 2.74412 25.0886L5.73713 25.2933ZM4.00881 29.7497L3.99876 29.7534L5.03973 32.5671L5.04978 32.5633L4.00881 29.7497ZM4.04489 29.7372C3.83944 29.8057 3.67591 29.8602 3.53488 29.9046C3.39286 29.9492 3.29904 29.9756 3.23448 29.9907C3.16724 30.0065 3.16954 30.0009 3.21399 29.9992C3.26573 29.9973 3.38823 30.0001 3.54224 30.055L2.53458 32.8807C3.09518 33.0806 3.62263 32.9811 3.91976 32.9114C4.23817 32.8367 4.61829 32.7084 4.9936 32.5833L4.04489 29.7372ZM1.4141 29.0144L1.41249 29.0194L4.27049 29.9315L4.2721 29.9264L1.4141 29.0144ZM1.41846 29.0011C1.29275 29.3783 1.16406 29.7596 1.0891 30.0788C1.01926 30.3762 0.91926 30.9047 1.11945 31.4661L3.94516 30.4585C4.00019 30.6128 4.00282 30.7353 4.00088 30.7866C3.99922 30.8307 3.99373 30.8325 4.00966 30.7646C4.02496 30.6994 4.05147 30.605 4.09639 30.4622C4.141 30.3205 4.19573 30.1561 4.26451 29.9498L1.41846 29.0011ZM3.54223 30.055C3.72909 30.1216 3.87737 30.2684 3.94516 30.4585L1.11945 31.4661C1.35527 32.1274 1.87652 32.646 2.53459 32.8807L3.54223 30.055ZM10.2656 28.7035L10.2588 28.6996L8.76002 31.2984L8.7669 31.3023L10.2656 28.7035ZM10.2588 28.6996C10.1263 28.6231 9.81965 28.4324 9.48783 28.3407L8.6886 31.2322C8.59587 31.2066 8.54307 31.1766 8.56575 31.1884C8.57603 31.1938 8.59506 31.204 8.62978 31.2237C8.66455 31.2433 8.7051 31.2667 8.75997 31.2983L10.2588 28.6996ZM8.84775 31.2982C8.90422 31.2794 8.94509 31.2658 8.97992 31.2545C9.01458 31.2433 9.03226 31.2381 9.04061 31.2357C9.05653 31.2312 9.00114 31.2484 8.91165 31.2545L8.70698 28.2615C8.36462 28.2849 8.03858 28.4056 7.89907 28.4521L8.84775 31.2982ZM9.48786 28.3407C9.23256 28.2701 8.97788 28.2429 8.70698 28.2615L8.91165 31.2545C8.88461 31.2563 8.84456 31.2569 8.79677 31.252C8.74919 31.2471 8.71156 31.2386 8.68857 31.2322L9.48786 28.3407ZM17 18.5H17.0033V15.5H17V18.5ZM15.5037 16.965L15.5037 16.9683L18.5028 17.0384L18.5029 17.035L15.5037 16.965ZM17.0391 15.5038L17.0359 15.5037L16.9641 18.5028L16.9674 18.5029L17.0391 15.5038ZM18.5 17.0033V17H15.5V17.0033H18.5ZM23.6667 18.5H23.67V15.5H23.6667V18.5ZM22.1704 16.965L22.1703 16.9683L25.1695 17.0384L25.1696 17.035L22.1704 16.965ZM23.7058 15.5038L23.7025 15.5037L23.6308 18.5028L23.634 18.5029L23.7058 15.5038ZM25.1667 17.0033V17H22.1667V17.0033H25.1667ZM10.3333 18.5H10.3367V15.5H10.3333V18.5ZM8.83708 16.965L8.837 16.9683L11.8362 17.0384L11.8363 17.035L8.83708 16.965ZM10.3725 15.5038L10.3692 15.5037L10.2975 18.5028L10.3007 18.5029L10.3725 15.5038ZM11.8333 17.0033V17H8.83333V17.0033H11.8333Z" fill="#5200FF"/>
</svg>
