<svg width="100" height="100" viewBox="0 0 100 100" fill="none" xmlns="http://www.w3.org/2000/svg">
<g clip-path="url(#clip0_119_3218)">
<path opacity="0.971" fill-rule="evenodd" clip-rule="evenodd" d="M35.9864 -0.0976562C37.8107 -0.0976562 39.635 -0.0976562 41.4593 -0.0976562C42.1819 8.59973 38.3509 14.0726 29.9663 16.3209C35.804 17.6285 39.5438 21.1554 41.1856 26.9017C42.3431 34.1036 39.6979 39.3637 33.25 42.6817C26.8796 44.9278 21.437 43.5596 16.9227 38.5771C13.9981 34.5797 13.2684 30.2015 14.7335 25.4423C16.6994 20.4352 20.3176 17.4251 25.588 16.4121C21.7576 16.3209 17.9265 16.2905 14.095 16.3209C14.095 14.4966 14.095 12.6723 14.095 10.848C18.6562 10.8784 23.2168 10.848 27.7772 10.7568C31.9535 10.4721 34.5987 8.31336 35.7128 4.28062C35.9131 2.82776 36.0043 1.36833 35.9864 -0.0976562ZM26.865 21.9761C29.4467 21.7301 30.5718 22.8856 30.2399 25.4423C29.17 27.2202 27.7409 27.5548 25.9529 26.4456C24.7499 24.6239 25.0541 23.1342 26.865 21.9761ZM19.9327 27.6314C22.6971 32.5677 26.7105 33.936 31.973 31.7361C33.6145 30.7635 34.8003 29.3953 35.5304 27.6314C36.5116 32.877 34.4745 36.3126 29.419 37.9386C24.4818 38.4713 21.2893 36.3734 19.8415 31.6448C19.7169 30.302 19.7473 28.9641 19.9327 27.6314Z" fill="#9F99A7"/>
<path opacity="0.971" fill-rule="evenodd" clip-rule="evenodd" d="M57.8775 -0.0976562C59.7018 -0.0976562 61.5261 -0.0976562 63.3503 -0.0976562C62.7751 3.96153 64.1131 7.18444 67.3638 9.57104C68.657 10.3352 70.0555 10.7305 71.5596 10.7568C76.1199 10.848 80.6806 10.8784 85.2417 10.848C85.2417 12.6723 85.2417 14.4966 85.2417 16.3209C81.4102 16.2905 77.5792 16.3209 73.7487 16.4121C78.6511 17.2979 82.1477 20.0039 84.2384 24.5301C86.4844 30.9005 85.1162 36.3431 80.1337 40.8575C75.787 43.9206 71.1046 44.5288 66.0868 42.6817C59.0649 38.9429 56.5414 33.1964 58.516 25.4423C60.4964 20.4518 64.1145 17.4112 69.3705 16.3209C60.9837 14.0708 57.1527 8.598 57.8775 -0.0976562ZM70.6475 21.9762C73.2292 21.7301 74.3542 22.8856 74.0224 25.4423C72.9524 27.2202 71.5233 27.5548 69.7353 26.4456C68.5324 24.6239 68.8365 23.1342 70.6475 21.9762ZM63.7152 27.6314C66.4795 32.5677 70.4929 33.936 75.7555 31.7361C77.3969 30.7635 78.5827 29.3953 79.3128 27.6314C80.2941 32.877 78.2569 36.3126 73.2015 37.9386C68.2642 38.4713 65.0717 36.3734 63.624 31.6448C63.4994 30.302 63.5297 28.9641 63.7152 27.6314Z" fill="#9F99A7"/>
<path opacity="0.968" fill-rule="evenodd" clip-rule="evenodd" d="M47.4794 43.6851C54.7383 43.138 59.8159 46.1784 62.7121 52.8065C63.2973 55.2 63.5102 57.6325 63.3506 60.1036C61.5263 60.1036 59.702 60.1036 57.8778 60.1036C58.4334 56.1404 57.1564 52.9479 54.0468 50.5262C50.0461 48.4618 46.4888 49.0396 43.3747 52.2592C42.5833 53.2947 42.0361 54.4502 41.7329 55.7254C41.5326 57.1782 41.4413 58.6376 41.4592 60.1036C39.6349 60.1036 37.8107 60.1036 35.9864 60.1036C35.2818 51.3921 39.1128 45.9193 47.4794 43.6851Z" fill="#9F99A7"/>
<path d="M22.1436 96.46C20.7836 96.46 19.5836 96.29 18.5436 95.95C17.5236 95.63 16.5136 95.11 15.5136 94.39V89.71C16.5136 90.35 17.4436 90.81 18.3036 91.09C19.1636 91.37 20.1036 91.51 21.1236 91.51C21.9636 91.51 22.6936 91.33 23.3136 90.97C23.9536 90.61 24.4836 89.94 24.9036 88.96L31.1136 73.81H38.4036L30.3636 91.06C29.7436 92.4 28.9836 93.47 28.0836 94.27C27.2036 95.07 26.2536 95.63 25.2336 95.95C24.2136 96.29 23.1836 96.46 22.1436 96.46ZM21.7536 89.05L14.6736 73.81H22.2336L28.3536 89.05H21.7536ZM60.7798 73.81V91H53.9098V75.76L57.0298 78.88H43.6498L46.7698 75.76V91H39.8998V73.81H60.7798ZM84.894 83.59C84.734 85.17 84.164 86.56 83.184 87.76C82.204 88.94 80.924 89.86 79.344 90.52C77.784 91.18 76.024 91.51 74.064 91.51C71.924 91.51 70.024 91.13 68.364 90.37C66.724 89.61 65.444 88.54 64.524 87.16C63.604 85.78 63.144 84.2 63.144 82.42C63.144 80.6 63.604 79.01 64.524 77.65C65.444 76.29 66.724 75.23 68.364 74.47C70.024 73.69 71.924 73.3 74.064 73.3C76.024 73.3 77.784 73.63 79.344 74.29C80.924 74.95 82.204 75.87 83.184 77.05C84.164 78.23 84.734 79.62 84.894 81.22H78.084C77.884 80.28 77.424 79.57 76.704 79.09C75.984 78.59 75.104 78.34 74.064 78.34C73.264 78.34 72.564 78.5 71.964 78.82C71.364 79.12 70.904 79.58 70.584 80.2C70.264 80.8 70.104 81.54 70.104 82.42C70.104 83.3 70.264 84.04 70.584 84.64C70.904 85.24 71.364 85.7 71.964 86.02C72.564 86.32 73.264 86.47 74.064 86.47C75.104 86.47 75.984 86.21 76.704 85.69C77.424 85.15 77.884 84.45 78.084 83.59H84.894Z" fill="#9F99A7"/>
</g>
<defs>
<clipPath id="clip0_119_3218">
<rect width="100" height="100" fill="white"/>
</clipPath>
</defs>
</svg>
