<svg width="22" height="24" viewBox="0 0 22 24" fill="none" xmlns="http://www.w3.org/2000/svg">
<path d="M1.08489 10.6684C0.694361 11.0589 0.694361 11.692 1.08489 12.0826C1.47541 12.4731 2.10857 12.4731 2.4991 12.0826L1.08489 10.6684ZM9.83533 3.33212L9.12822 2.62501H9.12822L9.83533 3.33212ZM18.4972 11.9944L19.2043 12.7015L18.4972 11.9944ZM9.21639 21.2752L9.9235 21.9823L9.21639 21.2752ZM3.44173 15.5005L4.14884 16.2076V16.2076L3.44173 15.5005ZM12.7225 6.21973L13.4296 6.92684V6.92684L12.7225 6.21973ZM6.85954 16.443C6.46902 16.8335 6.46902 17.4667 6.85954 17.8572C7.25007 18.2477 7.88323 18.2477 8.27376 17.8572L6.85954 16.443ZM15.6105 6.21973L14.9034 6.92684V6.92684L15.6105 6.21973ZM2.4991 12.0826L10.5424 4.03922L9.12822 2.62501L1.08489 10.6684L2.4991 12.0826ZM17.7901 11.2873L8.50928 20.5681L9.9235 21.9823L19.2043 12.7015L17.7901 11.2873ZM4.14884 16.2076L13.4296 6.92684L12.0154 5.51262L2.73462 14.7934L4.14884 16.2076ZM14.9029 8.39967L6.85954 16.443L8.27376 17.8572L16.3171 9.81388L14.9029 8.39967ZM14.9034 6.92684C15.3099 7.33328 15.31 7.99252 14.9029 8.39967L16.3171 9.81388C17.5046 8.6264 17.5059 6.70083 16.3177 5.51262L14.9034 6.92684ZM13.4296 6.92684C13.8364 6.52004 14.4966 6.52004 14.9034 6.92684L16.3177 5.51262C15.1298 4.32478 13.2032 4.32478 12.0154 5.51262L13.4296 6.92684ZM4.14923 20.5678C2.94499 19.3636 2.94485 17.4116 4.14884 16.2076L2.73463 14.7934C0.749335 16.7787 0.749977 19.997 2.73502 21.982L4.14923 20.5678ZM8.50928 20.5681C7.30524 21.7721 5.35342 21.772 4.14923 20.5678L2.73502 21.982C4.72011 23.9671 7.93826 23.9675 9.9235 21.9823L8.50928 20.5681ZM17.7904 4.03922C19.7917 6.0406 19.7916 9.28578 17.7901 11.2873L19.2043 12.7015C21.9867 9.91907 21.9871 5.40756 19.2046 2.62501L17.7904 4.03922ZM10.5424 4.03922C12.5439 2.03779 15.7889 2.03779 17.7904 4.03922L19.2046 2.62501C16.4221 -0.157475 11.9107 -0.157474 9.12822 2.62501L10.5424 4.03922Z" fill="#5200FF"/>
</svg>
