<svg width="16" height="16" viewBox="0 0 16 16" fill="none" xmlns="http://www.w3.org/2000/svg">
<path d="M1.33398 14.6668H14.6673M1.33398 14.6668V11.3334L8.00065 4.66676M1.33398 14.6668L4.66732 14.6667L11.334 8.00008M8.00065 4.66676L10.3912 2.27622L10.3926 2.2748C10.7217 1.94573 10.8865 1.7809 11.0765 1.71917C11.2439 1.66479 11.4242 1.66479 11.5916 1.71917C11.7814 1.78086 11.9461 1.9455 12.2747 2.2741L13.7245 3.72393C14.0545 4.05394 14.2196 4.21903 14.2814 4.4093C14.3358 4.57667 14.3358 4.75696 14.2814 4.92433C14.2196 5.11447 14.0548 5.2793 13.7252 5.60884L13.7245 5.60955L11.334 8.00008M8.00065 4.66676L11.334 8.00008" stroke="#5200FF" stroke-width="1.5" stroke-linecap="round" stroke-linejoin="round"/>
</svg>
