<svg width="21" height="21" viewBox="0 0 21 21" fill="none" xmlns="http://www.w3.org/2000/svg">
<path d="M1.16675 19.3336H19.8334M1.16675 19.3336V14.667L10.5001 5.33363M1.16675 19.3336L5.83341 19.3336L15.1667 10.0003M10.5001 5.33363L13.8468 1.98687L13.8488 1.98488C14.3095 1.52419 14.5403 1.29343 14.8063 1.207C15.0406 1.13087 15.293 1.13087 15.5273 1.207C15.7932 1.29337 16.0236 1.52387 16.4837 1.98391L18.5135 4.01367C18.9755 4.47569 19.2066 4.70681 19.2931 4.97319C19.3693 5.20751 19.3693 5.45991 19.2931 5.69423C19.2066 5.96042 18.9759 6.19119 18.5145 6.65255L18.5135 6.65354L15.1667 10.0003M10.5001 5.33363L15.1667 10.0003" stroke="#5200FF" stroke-width="2" stroke-linecap="round" stroke-linejoin="round"/>
</svg>
