<svg width="21" height="17" viewBox="0 0 21 17" fill="none" xmlns="http://www.w3.org/2000/svg">
<path d="M1.71799 5.0918L0.82698 4.63781L1.71799 5.0918ZM2.5918 4.21799L3.04579 5.10899H3.04579L2.5918 4.21799ZM2.5918 15.7822L2.13781 16.6732H2.13781L2.5918 15.7822ZM1.71799 14.9074L0.82698 15.3614L0.826981 15.3614L1.71799 14.9074ZM19.2822 14.9074L18.3912 14.4534V14.4534L19.2822 14.9074ZM18.4074 15.7822L18.8614 16.6732L18.4074 15.7822ZM19.2822 5.0918L18.3912 5.54579L18.3912 5.54579L19.2822 5.0918ZM18.4074 4.21799L18.8614 3.32698V3.32698L18.4074 4.21799ZM6.99023 2.52841L7.93738 2.84926L7.93892 2.84464L6.99023 2.52841ZM7.09558 2.22949L6.17271 1.84437V1.84437L7.09558 2.22949ZM8.79492 1.00541L8.86844 2.00271H8.86844L8.79492 1.00541ZM8.02857 4L8.02848 3H8.02845L8.02857 4ZM7.77637 3.99414L7.88764 3.00035H7.88763L7.77637 3.99414ZM6.9883 2.53412L6.04116 2.21327L6.03962 2.21789L6.9883 2.53412ZM6.90918 2.79084L7.88716 2.99955L7.88716 2.99954L6.90918 2.79084ZM14.0098 2.52832L13.0611 2.84455L13.0611 2.84456L14.0098 2.52832ZM14.0908 2.79093L13.1128 2.99963L13.1128 2.99964L14.0908 2.79093ZM12.9712 4L12.9713 3H12.9713L12.9712 4ZM13.2242 3.99414L13.3355 4.98793L13.2242 3.99414ZM13.9043 2.22949L14.8272 1.84438L14.8272 1.84437L13.9043 2.22949ZM12.2057 1.00541L12.2792 0.00811899V0.00811893L12.2057 1.00541ZM10.5 12C9.39543 12 8.5 11.1046 8.5 10H6.5C6.5 12.2091 8.29086 14 10.5 14V12ZM8.5 10C8.5 8.89543 9.39543 8 10.5 8V6C8.29086 6 6.5 7.79086 6.5 10H8.5ZM10.5 8C11.6046 8 12.5 8.89543 12.5 10H14.5C14.5 7.79086 12.7091 6 10.5 6V8ZM12.5 10C12.5 11.1046 11.6046 12 10.5 12V14C12.7091 14 14.5 12.2091 14.5 10H12.5ZM2.5 12.8002V7.2002H0.5V12.8002H2.5ZM4.7002 5H7.98898V3H4.7002V5ZM7.98898 5H8.05078V3H7.98898V5ZM8.05078 5H12.949V3H8.05078V5ZM12.949 5H13.0108V3H12.949V5ZM13.0108 5H16.3002V3H13.0108V5ZM2.5 7.2002C2.5 6.62365 2.50078 6.25126 2.52393 5.9678C2.54613 5.69595 2.58383 5.59517 2.60899 5.54579L0.82698 4.63781C0.634156 5.01624 0.56286 5.40962 0.530567 5.80498C0.499223 6.18874 0.5 6.65663 0.5 7.2002H2.5ZM4.7002 3C4.15663 3 3.68874 2.99922 3.30498 3.03057C2.90962 3.06286 2.51624 3.13416 2.13781 3.32698L3.04579 5.10899C3.09517 5.08383 3.19595 5.04613 3.4678 5.02393C3.75126 5.00078 4.12365 5 4.7002 5V3ZM2.60899 5.54579C2.70487 5.35763 2.85763 5.20487 3.04579 5.10899L2.13781 3.32698C1.57332 3.6146 1.1146 4.07332 0.82698 4.63781L2.60899 5.54579ZM4.69691 15C4.12146 15 3.7498 14.9992 3.46686 14.9761C3.19554 14.9539 3.095 14.9163 3.04579 14.8912L2.13781 16.6732C2.516 16.8659 2.90906 16.9372 3.30396 16.9695C3.68725 17.0008 4.15444 17 4.69691 17V15ZM0.5 12.8002C0.5 13.3437 0.499221 13.8114 0.530573 14.1949C0.56289 14.5902 0.634243 14.9831 0.82698 15.3614L2.60899 14.4534C2.58374 14.4038 2.5461 14.3032 2.52392 14.0319C2.50078 13.7488 2.5 13.3768 2.5 12.8002H0.5ZM3.04579 14.8912C2.85871 14.7959 2.70542 14.6426 2.60899 14.4534L0.826981 15.3614C1.11405 15.9248 1.57224 16.3851 2.13781 16.6732L3.04579 14.8912ZM18.5 12.8031C18.5 13.3786 18.4992 13.75 18.4761 14.0327C18.4539 14.3036 18.4164 14.4041 18.3912 14.4534L20.1732 15.3614C20.3659 14.9833 20.4372 14.5905 20.4695 14.1957C20.5008 13.8126 20.5 13.3455 20.5 12.8031H18.5ZM16.3031 17C16.8455 17 17.3126 17.0008 17.6957 16.9695C18.0905 16.9372 18.4833 16.8659 18.8614 16.6732L17.9534 14.8912C17.9041 14.9164 17.8036 14.9539 17.5327 14.9761C17.25 14.9992 16.8786 15 16.3031 15V17ZM18.3912 14.4534C18.2953 14.6416 18.1416 14.7953 17.9534 14.8912L18.8614 16.6732C19.4259 16.3856 19.8856 15.9259 20.1732 15.3614L18.3912 14.4534ZM20.5 7.19691C20.5 6.65444 20.5008 6.18725 20.4695 5.80396C20.4372 5.40906 20.3659 5.016 20.1732 4.63781L18.3912 5.54579C18.4163 5.595 18.4539 5.69554 18.4761 5.96686C18.4992 6.2498 18.5 6.62146 18.5 7.19691H20.5ZM16.3002 5C16.8768 5 17.2488 5.00078 17.5319 5.02392C17.8032 5.0461 17.9039 5.08374 17.9534 5.10899L18.8614 3.32698C18.4831 3.13424 18.0902 3.06289 17.6949 3.03057C17.3114 2.99922 16.8437 3 16.3002 3V5ZM20.1732 4.63781C19.8851 4.07224 19.4248 3.61405 18.8614 3.32698L17.9534 5.10899C18.1427 5.20542 18.2959 5.3587 18.3912 5.54579L20.1732 4.63781ZM9.11133 2H11.8886V0H9.11133V2ZM7.93892 2.84464C7.99536 2.67532 8.0077 2.64035 8.01845 2.61461L6.17271 1.84437C6.12675 1.95451 6.08777 2.07353 6.04155 2.21219L7.93892 2.84464ZM9.11133 0C8.96511 0 8.84041 -0.00065434 8.7214 0.00811899L8.86844 2.00271C8.89628 2.00065 8.93292 2 9.11133 2V0ZM8.01845 2.61461C8.16334 2.2674 8.49195 2.03046 8.86844 2.00271L8.7214 0.00811899C7.59449 0.0911954 6.60838 0.800372 6.17271 1.84437L8.01845 2.61461ZM8.0507 3L8.02848 3L8.02865 5L8.05087 5L8.0507 3ZM8.02845 3C8.0145 3 8.0016 3.00001 7.9894 3L7.98856 5C8.00141 5.00001 8.01487 5 8.02869 5L8.02845 3ZM7.9894 3C7.93519 2.99998 7.90485 2.99979 7.88406 2.99931C7.86394 2.99883 7.8699 2.99836 7.88764 3.00035L7.6651 4.98793C7.7794 5.00073 7.90129 4.99996 7.98855 5L7.9894 3ZM6.0431 2.20757L6.04117 2.21327L7.93543 2.85496L7.93737 2.84926L6.0431 2.20757ZM6.03962 2.21789C6.00427 2.32395 5.95741 2.45934 5.9312 2.58214L7.88716 2.99954C7.88327 3.01779 7.88107 3.02177 7.89041 2.99198C7.89982 2.96197 7.91336 2.92121 7.93698 2.85035L6.03962 2.21789ZM7.88763 3.00035L7.88716 2.99955L5.9312 2.58213C5.68444 3.73846 6.48978 4.85634 7.6651 4.98793L7.88763 3.00035ZM13.0611 2.84456C13.0853 2.91733 13.0993 2.95943 13.1091 2.9904C13.1187 3.02123 13.1166 3.01765 13.1128 2.99963L15.0687 2.58223C15.0424 2.45862 14.995 2.32174 14.9584 2.21209L13.0611 2.84456ZM12.9489 5L12.9711 5L12.9713 3L12.9491 3L12.9489 5ZM12.9711 5C12.9849 5 12.9984 5.00001 13.0112 5L13.0104 3C12.9982 3.00001 12.9853 3 12.9713 3L12.9711 5ZM13.0112 5C13.0984 4.99996 13.2211 5.00074 13.3355 4.98793L13.1129 3.00035C13.1309 2.99834 13.1369 2.99882 13.1163 2.9993C13.0953 2.9998 13.0647 2.99998 13.0104 3L13.0112 5ZM13.1128 2.99964L13.1129 3.00035L13.3355 4.98793C14.5117 4.85624 15.3153 3.73771 15.0687 2.58223L13.1128 2.99964ZM14.9584 2.21209C14.9117 2.07194 14.873 1.95417 14.8272 1.84438L12.9814 2.61461C12.9923 2.6407 13.0051 2.67674 13.0611 2.84455L14.9584 2.21209ZM11.8886 2C12.0671 2 12.1043 2.00066 12.1321 2.00271L12.2792 0.00811893C12.1601 -0.000656009 12.0347 0 11.8886 0V2ZM14.8272 1.84437C14.3917 0.800778 13.4065 0.0912278 12.2792 0.00811899L12.1321 2.00271C12.5082 2.03043 12.8364 2.267 12.9814 2.61461L14.8272 1.84437ZM18.5 7.19691V12.8031H20.5V7.19691H18.5ZM16.3031 15H4.69691V17H16.3031V15Z" fill="#5200FF"/>
</svg>
