<svg width="6" height="20" viewBox="0 0 6 20" fill="none" xmlns="http://www.w3.org/2000/svg">
<path d="M1.75 17.5C1.75 18.1904 2.30964 18.75 3 18.75C3.69036 18.75 4.25 18.1904 4.25 17.5C4.25 16.8096 3.69036 16.25 3 16.25C2.30964 16.25 1.75 16.8096 1.75 17.5Z" stroke="#6E667C" stroke-width="2" stroke-linecap="round" stroke-linejoin="round"/>
<path d="M1.75 10C1.75 10.6904 2.30964 11.25 3 11.25C3.69036 11.25 4.25 10.6904 4.25 10C4.25 9.30964 3.69036 8.75 3 8.75C2.30964 8.75 1.75 9.30964 1.75 10Z" stroke="#6E667C" stroke-width="2" stroke-linecap="round" stroke-linejoin="round"/>
<path d="M1.75 2.5C1.75 3.19036 2.30964 3.75 3 3.75C3.69036 3.75 4.25 3.19036 4.25 2.5C4.25 1.80964 3.69036 1.25 3 1.25C2.30964 1.25 1.75 1.80964 1.75 2.5Z" stroke="#6E667C" stroke-width="2" stroke-linecap="round" stroke-linejoin="round"/>
</svg>
