<svg width="24" height="23" viewBox="0 0 24 23" fill="none" xmlns="http://www.w3.org/2000/svg">
<path d="M6.31083 18.818L6.93554 19.5989L6.93926 19.5959L6.31083 18.818ZM4.53288 20.2404L3.90818 19.4595L3.90818 19.4595L4.53288 20.2404ZM1.75432 2.94043L0.863312 2.48644L1.75432 2.94043ZM2.77376 1.92098L2.31977 1.02998L2.77376 1.92098ZM2.66781 21.406L2.66888 22.406H2.66888L2.66781 21.406ZM1.75487 20.9672L2.53641 20.3433L2.53641 20.3433L1.75487 20.9672ZM7.68254 18.0476L7.48149 17.0681H7.48149L7.68254 18.0476ZM6.31509 18.8146L5.69039 18.0337L5.68666 18.0367L6.31509 18.8146ZM7.09029 18.2552L6.63534 17.3647H6.63534L7.09029 18.2552ZM22.2459 16.7259L21.3549 16.2719V16.2719L22.2459 16.7259ZM21.226 17.7459L21.68 18.6369L21.226 17.7459ZM22.2459 2.94043L21.3549 3.39442V3.39442L22.2459 2.94043ZM21.2259 1.92098L21.6799 1.02998V1.02998L21.2259 1.92098ZM11 13.3333C11 13.8856 11.4477 14.3333 12 14.3333C12.5523 14.3333 13 13.8856 13 13.3333H11ZM13 6.33333C13 5.78105 12.5523 5.33333 12 5.33333C11.4477 5.33333 11 5.78105 11 6.33333H13ZM8.5 8.83333C7.94771 8.83333 7.5 9.28105 7.5 9.83333C7.5 10.3856 7.94771 10.8333 8.5 10.8333V8.83333ZM15.5 10.8333C16.0523 10.8333 16.5 10.3856 16.5 9.83333C16.5 9.28105 16.0523 8.83333 15.5 8.83333V10.8333ZM5.68614 18.0372L3.90818 19.4595L5.15757 21.0213L6.93553 19.5989L5.68614 18.0372ZM2.5 18.7831V5.40023H0.5V18.7831H2.5ZM5.23356 2.66666H18.7669V0.666664H5.23356V2.66666ZM2.5 5.40023C2.5 4.73034 2.50078 4.28792 2.52847 3.94886C2.55522 3.62141 2.602 3.47945 2.64532 3.39442L0.863312 2.48644C0.652322 2.90053 0.571943 3.33508 0.535109 3.78605C0.499223 4.22541 0.5 4.76332 0.5 5.40023H2.5ZM5.23356 0.666664C4.59666 0.666664 4.05874 0.665887 3.61938 0.701773C3.16841 0.738607 2.73386 0.818986 2.31977 1.02998L3.22775 2.81199C3.31279 2.76866 3.45475 2.72188 3.7822 2.69513C4.12126 2.66744 4.56368 2.66666 5.23356 2.66666V0.666664ZM2.64532 3.39442C2.77316 3.14353 2.97687 2.93982 3.22775 2.81199L2.31977 1.02998C1.69257 1.34955 1.18289 1.85923 0.863312 2.48644L2.64532 3.39442ZM3.90818 19.4595C3.40719 19.8603 3.08484 20.1169 2.83797 20.2801C2.57559 20.4536 2.56152 20.4062 2.66673 20.406L2.66888 22.406C3.18263 22.4055 3.61567 22.1636 3.94097 21.9485C4.28178 21.7232 4.6877 21.3972 5.15757 21.0213L3.90818 19.4595ZM0.5 18.7831C0.5 19.3848 0.499006 19.9053 0.535959 20.3121C0.571239 20.7005 0.652861 21.1896 0.973325 21.5911L2.53641 20.3433C2.60201 20.4255 2.55619 20.4442 2.52776 20.1312C2.50099 19.8365 2.5 19.4247 2.5 18.7831H0.5ZM2.66673 20.406C2.61608 20.4061 2.56814 20.3831 2.53641 20.3433L0.973323 21.5911C1.3849 22.1067 2.00894 22.4067 2.66888 22.406L2.66673 20.406ZM8.64298 17C8.1977 17 7.8361 16.9953 7.48149 17.0681L7.88358 19.0272C7.99323 19.0047 8.11752 19 8.64298 19V17ZM6.93926 19.5959L6.94352 19.5925L5.68666 18.0367L5.6824 18.0402L6.93926 19.5959ZM6.93979 19.5955C7.34712 19.2696 7.44633 19.1963 7.54525 19.1457L6.63534 17.3647C6.31381 17.529 6.03536 17.7577 5.6904 18.0337L6.93979 19.5955ZM7.48149 17.0681C7.18782 17.1283 6.90329 17.2278 6.63534 17.3647L7.54525 19.1457C7.65174 19.0913 7.76536 19.0515 7.88358 19.0272L7.48149 17.0681ZM21.5 14.2708C21.5 14.9395 21.4992 15.3808 21.4716 15.719C21.4449 16.0454 21.3982 16.1869 21.3549 16.2719L23.1369 17.1799C23.3477 16.7662 23.4281 16.3323 23.4649 15.8819C23.5008 15.4433 23.5 14.9064 23.5 14.2708H21.5ZM18.7708 19C19.4065 19 19.9434 19.0008 20.382 18.9649C20.8324 18.9281 21.2663 18.8477 21.68 18.6369L20.772 16.8549C20.6871 16.8982 20.5456 16.9449 20.219 16.9716C19.8808 16.9992 19.4395 17 18.7708 17V19ZM21.3549 16.2719C21.227 16.5229 21.0228 16.7272 20.772 16.8549L21.68 18.6369C22.3074 18.3173 22.8174 17.8069 23.1369 17.1799L21.3549 16.2719ZM23.5 5.39639C23.5 4.76077 23.5008 4.22367 23.4649 3.78486C23.4281 3.33444 23.3478 2.90024 23.1369 2.48644L21.3549 3.39442C21.3981 3.47925 21.4449 3.62092 21.4716 3.94776C21.4992 4.28622 21.5 4.72778 21.5 5.39639H23.5ZM18.7669 2.66666C19.4368 2.66666 19.879 2.66744 20.2178 2.69513C20.5449 2.72186 20.6867 2.76861 20.7719 2.81199L21.6799 1.02998C21.2659 0.819037 20.8316 0.738625 20.3807 0.701776C19.9415 0.665886 19.4038 0.666664 18.7669 0.666664V2.66666ZM23.1369 2.48644C22.8171 1.85867 22.3065 1.34927 21.6799 1.02998L20.7719 2.81199C21.0233 2.94011 21.2274 3.1441 21.3549 3.39442L23.1369 2.48644ZM13 13.3333V9.83333H11V13.3333H13ZM13 9.83333V6.33333H11V9.83333H13ZM8.5 10.8333H12V8.83333H8.5V10.8333ZM12 10.8333H15.5V8.83333H12V10.8333ZM21.5 5.39639V14.2708H23.5V5.39639H21.5ZM18.7708 17H8.64298V19H18.7708V17Z" fill="white"/>
</svg>
