<svg width="24" height="22" viewBox="0 0 24 22" fill="none" xmlns="http://www.w3.org/2000/svg">
<path d="M22.5 20.3334L21.861 21.1025C22.1592 21.3503 22.5738 21.4034 22.9248 21.2386C23.2759 21.0739 23.5 20.7211 23.5 20.3334H22.5ZM18.6115 17.1028L19.2505 16.3336L19.2505 16.3336L18.6115 17.1028ZM5.38851 12.436L4.74949 11.6668L4.74942 11.6668L5.38851 12.436ZM1.5 15.667H0.5C0.5 16.0548 0.724166 16.4076 1.0752 16.5723C1.42624 16.737 1.84085 16.684 2.13909 16.4362L1.5 15.667ZM16.6667 7.33335H21.3333V5.33335H16.6667V7.33335ZM21.3333 7.33335C21.4254 7.33335 21.5 7.40797 21.5 7.50002H23.5C23.5 6.3034 22.5299 5.33335 21.3333 5.33335V7.33335ZM21.5 7.50002V20.3334H23.5V7.50002H21.5ZM23.139 19.5642L19.2505 16.3336L17.9725 17.872L21.861 21.1025L23.139 19.5642ZM19.2505 16.3336C18.8613 16.0103 18.3707 15.8334 17.8652 15.8334V17.8334C17.9044 17.8334 17.9427 17.8473 17.9725 17.872L19.2505 16.3336ZM17.8652 15.8334H8.5V17.8334H17.8652V15.8334ZM8.5 15.8334C8.40795 15.8334 8.33333 15.7587 8.33333 15.6667H6.33333C6.33333 16.8633 7.30338 17.8334 8.5 17.8334V15.8334ZM8.33333 15.6667V12.1667H6.33333V15.6667H8.33333ZM15.5 2.66669C15.592 2.66669 15.6667 2.74131 15.6667 2.83335H17.6667C17.6667 1.63674 16.6966 0.666687 15.5 0.666687V2.66669ZM15.6667 2.83335V6.33335H17.6667V2.83335H15.6667ZM15.6667 6.33335V11H17.6667V6.33335H15.6667ZM15.6667 11C15.6667 11.0921 15.592 11.1667 15.5 11.1667V13.1667C16.6966 13.1667 17.6667 12.1966 17.6667 11H15.6667ZM15.5 11.1667H7.33333V13.1667H15.5V11.1667ZM7.33333 11.1667H6.13477V13.1667H7.33333V11.1667ZM6.13477 11.1667C5.62969 11.1667 5.139 11.3432 4.74949 11.6668L6.02753 13.2052C6.05695 13.1807 6.09521 13.1667 6.13477 13.1667V11.1667ZM4.74942 11.6668L0.860908 14.8979L2.13909 16.4362L6.0276 13.2051L4.74942 11.6668ZM2.5 15.667V2.83335H0.5V15.667H2.5ZM2.5 2.83335C2.5 2.74131 2.57462 2.66669 2.66667 2.66669V0.666687C1.47005 0.666687 0.5 1.63674 0.5 2.83335H2.5ZM2.66667 2.66669H15.5V0.666687H2.66667V2.66669Z" fill="white"/>
</svg>
