<svg width="18" height="23" viewBox="0 0 18 23" fill="none" xmlns="http://www.w3.org/2000/svg">
<path d="M1.5 5.00024V16.8567C1.5 18.558 1.5 19.4085 1.75515 19.9291C2.22806 20.8939 3.26447 21.4485 4.32959 21.3067C4.90425 21.2303 5.61204 20.7584 7.02762 19.8147L7.03102 19.8124C7.59211 19.4384 7.87269 19.2513 8.16619 19.1476C8.70526 18.957 9.29345 18.957 9.83252 19.1476C10.1266 19.2515 10.4083 19.4393 10.9716 19.8149C12.3872 20.7586 13.0958 21.2301 13.6705 21.3065C14.7356 21.4483 15.772 20.8939 16.2449 19.9291C16.5 19.4086 16.5 18.5577 16.5 16.8567V4.99614C16.5 3.59874 16.5 2.899 16.2278 2.36475C15.9881 1.89434 15.6046 1.51217 15.1342 1.27248C14.5995 1 13.9004 1 12.5002 1H5.50024C4.10011 1 3.39953 1 2.86475 1.27248C2.39434 1.51217 2.01217 1.89434 1.77248 2.36475C1.5 2.89953 1.5 3.60011 1.5 5.00024Z" stroke="#5200FF" stroke-width="2" stroke-linecap="round" stroke-linejoin="round"/>
</svg>
