<svg width="24" height="31" viewBox="0 0 24 31" fill="none" xmlns="http://www.w3.org/2000/svg">
<path d="M2 7.00035V22.809C2 25.0774 2 26.2114 2.3402 26.9055C2.97074 28.1919 4.35262 28.9313 5.77279 28.7423C6.53901 28.6404 7.48273 28.0112 9.37017 26.753L9.37469 26.7499C10.1228 26.2512 10.4969 26.0018 10.8883 25.8635C11.607 25.6094 12.3913 25.6094 13.11 25.8635C13.5022 26.0021 13.8777 26.2524 14.6289 26.7532C16.5163 28.0115 17.4611 28.6401 18.2273 28.7421C19.6475 28.931 21.0293 28.1919 21.6598 26.9055C22 26.2114 22 25.077 22 22.809V6.99487C22 5.13168 22 4.19869 21.637 3.48635C21.3175 2.85914 20.8062 2.34958 20.179 2.03C19.466 1.66669 18.5338 1.66669 16.667 1.66669H7.33366C5.46682 1.66669 4.5327 1.66669 3.81966 2.03C3.19245 2.34958 2.68289 2.85914 2.36331 3.48635C2 4.19939 2 5.1335 2 7.00035Z" stroke="#5200FF" stroke-width="3" stroke-linecap="round" stroke-linejoin="round"/>
</svg>
