<svg width="16" height="22" viewBox="0 0 16 22" fill="none" xmlns="http://www.w3.org/2000/svg">
<path d="M1 5.40022V16.4662C1 18.0541 1 18.8479 1.23814 19.3338C1.67952 20.2343 2.64684 20.7519 3.64095 20.6196C4.1773 20.5482 4.83791 20.1078 6.15912 19.227L6.16228 19.2249C6.68597 18.8758 6.94784 18.7012 7.22178 18.6044C7.72491 18.4266 8.27389 18.4266 8.77702 18.6044C9.05151 18.7014 9.31441 18.8767 9.8402 19.2272C11.1614 20.108 11.8228 20.5481 12.3591 20.6194C13.3532 20.7517 14.3205 20.2343 14.7619 19.3338C15 18.848 15 18.0539 15 16.4662V5.39638C15 4.09215 15 3.43906 14.7459 2.94042C14.5222 2.50137 14.1643 2.14468 13.7253 1.92097C13.2262 1.66666 12.5737 1.66666 11.2669 1.66666H4.73356C3.42677 1.66666 2.77289 1.66666 2.27376 1.92097C1.83472 2.14468 1.47802 2.50137 1.25432 2.94042C1 3.43955 1 4.09343 1 5.40022Z" fill="white" stroke="white" stroke-width="2" stroke-linecap="round" stroke-linejoin="round"/>
</svg>
