<svg width="21" height="21" viewBox="0 0 21 21" fill="none" xmlns="http://www.w3.org/2000/svg">
<path d="M8.60066 10.9852C8.21013 11.3758 8.21013 12.0089 8.60066 12.3995C8.99118 12.79 9.62435 12.79 10.0149 12.3995L8.60066 10.9852ZM14.861 7.5533C15.2515 7.16278 15.2515 6.52961 14.861 6.13909C14.4705 5.74856 13.8373 5.74856 13.4468 6.13909L14.861 7.5533ZM19.1113 3.88867L18.1949 3.48834C18.1798 3.52298 18.1666 3.55846 18.1555 3.59459L19.1113 3.88867ZM15.0207 17.1833L14.0649 16.8892L15.0207 17.1833ZM12.0603 17.428L12.9548 16.9808V16.9808L12.0603 17.428ZM9.46938 12.2461L8.57496 12.6933V12.6933L9.46938 12.2461ZM3.57192 8.93994L3.12471 9.83437H3.12471L3.57192 8.93994ZM3.81704 5.97932L4.11113 6.93509L3.81704 5.97932ZM17.1116 1.88867L17.4057 2.84445L17.1116 1.88867ZM1.75601 7.75879L0.832362 8.14204L1.75601 7.75879ZM1.83169 6.84597L2.67976 7.37586L2.67976 7.37586L1.83169 6.84597ZM9.27749 11.9043L10.0695 11.2938L10.0695 11.2938L9.27749 11.9043ZM8.76577 11.5369L8.31856 12.4313L8.3186 12.4313L8.76577 11.5369ZM9.09645 11.7225L9.70696 10.9305L9.70695 10.9305L9.09645 11.7225ZM14.1544 19.1683L14.6843 20.0163L14.6843 20.0163L14.1544 19.1683ZM13.2419 19.2443L12.8587 20.168L12.8587 20.168L13.2419 19.2443ZM19.1119 3.88729L20.0283 4.28762C20.0434 4.25298 20.0566 4.2175 20.0677 4.18137L19.1119 3.88729ZM19.4279 2.16651L20.3667 1.82188V1.82188L19.4279 2.16651ZM18.8337 1.57253L18.4891 2.51127L18.4891 2.51127L18.8337 1.57253ZM10.0149 12.3995L14.861 7.5533L13.4468 6.13909L8.60066 10.9852L10.0149 12.3995ZM18.1555 3.59459L14.0649 16.8892L15.9764 17.4773L20.0671 4.18276L18.1555 3.59459ZM12.9548 16.9808L10.3638 11.7989L8.57496 12.6933L11.1659 17.8752L12.9548 16.9808ZM4.11113 6.93509L17.4057 2.84445L16.8175 0.932895L3.52296 5.02354L4.11113 6.93509ZM4.01914 8.04552C3.44393 7.75791 3.07342 7.57155 2.8233 7.41767C2.54185 7.24453 2.61926 7.23 2.67965 7.37554L0.832362 8.14204C1.03566 8.632 1.46338 8.92922 1.77534 9.12113C2.11861 9.33232 2.58461 9.56432 3.12471 9.83437L4.01914 8.04552ZM3.52296 5.02354C2.94576 5.20114 2.44797 5.3534 2.07463 5.50532C1.73532 5.64339 1.26466 5.86628 0.983619 6.31609L2.67976 7.37586C2.5963 7.50943 2.52242 7.48235 2.82844 7.35782C3.10042 7.24715 3.49652 7.12421 4.11113 6.93509L3.52296 5.02354ZM2.67965 7.37554L2.67976 7.37586L0.983619 6.31609C0.641077 6.86432 0.584361 7.54436 0.832362 8.14204L2.67965 7.37554ZM10.3638 11.7989C10.2915 11.6542 10.2011 11.4645 10.0695 11.2938L8.48548 12.5148C8.47331 12.499 8.47151 12.4928 8.48597 12.5191C8.50413 12.5521 8.52775 12.5989 8.57496 12.6933L10.3638 11.7989ZM8.3186 12.4313C8.4095 12.4768 8.4538 12.4991 8.48545 12.5165C8.51052 12.5302 8.50309 12.5277 8.48595 12.5145L9.70695 10.9305C9.53775 10.8 9.34864 10.7103 9.21294 10.6424L8.3186 12.4313ZM10.0695 11.2938C9.96724 11.1611 9.84641 11.038 9.70696 10.9305L8.48594 12.5145L8.48548 12.5148L10.0695 11.2938ZM14.0649 16.8892C13.8758 17.5037 13.7529 17.8997 13.6423 18.1717C13.5178 18.4779 13.4908 18.4038 13.6246 18.3202L14.6843 20.0163C15.1343 19.7352 15.3571 19.2643 15.495 18.9252C15.6468 18.5519 15.7989 18.0542 15.9764 17.4773L14.0649 16.8892ZM11.1659 17.8752C11.436 18.4154 11.6681 18.8815 11.8794 19.2249C12.0714 19.5369 12.3688 19.9647 12.8587 20.168L13.6252 18.3207C13.7707 18.3811 13.7561 18.4583 13.5828 18.1767C13.4288 17.9265 13.2423 17.5559 12.9548 16.9808L11.1659 17.8752ZM13.6246 18.3202L13.6252 18.3207L12.8587 20.168C13.4573 20.4163 14.1369 20.3583 14.6843 20.0163L13.6246 18.3202ZM20.0277 4.289L20.0283 4.28762L18.1955 3.48696L18.1949 3.48834L20.0277 4.289ZM20.0677 4.18137C20.2058 3.73236 20.3309 3.32936 20.4001 3.0002C20.467 2.68178 20.5251 2.2536 20.3667 1.82188L18.4892 2.51113C18.4468 2.39574 18.4909 2.35993 18.4428 2.58882C18.397 2.80697 18.306 3.1062 18.1561 3.59321L20.0677 4.18137ZM17.4057 2.84445C17.8931 2.69449 18.1926 2.60342 18.4109 2.55757C18.6399 2.50946 18.6043 2.55356 18.4891 2.51127L19.1784 0.633791C18.7467 0.475314 18.3185 0.533335 17.9998 0.600278C17.6704 0.669471 17.2671 0.794567 16.8175 0.932895L17.4057 2.84445ZM20.3667 1.82188C20.1641 1.27021 19.7293 0.836065 19.1784 0.63379L18.4891 2.51127L18.4892 2.51113L20.3667 1.82188ZM9.21298 10.6424L4.01914 8.04552L3.12471 9.83437L8.31856 12.4313L9.21298 10.6424Z" fill="#9766FF"/>
</svg>
