<svg width="24" height="21" viewBox="0 0 24 21" fill="none" xmlns="http://www.w3.org/2000/svg">
<path opacity="0.969" fill-rule="evenodd" clip-rule="evenodd" d="M12.3246 0.802885C12.5127 0.795131 12.7001 0.802941 12.8868 0.82631C13.0875 0.948837 13.2749 1.08939 13.449 1.24796C16.6129 4.20893 19.7909 7.15266 22.983 10.0792C23.1391 10.3915 23.1391 10.7038 22.983 11.0162C19.7909 13.9427 16.6129 16.8865 13.449 19.8474C13.2749 20.006 13.0875 20.1466 12.8868 20.2691C12.4249 20.3932 12.0891 20.2448 11.8795 19.824C11.8561 17.9969 11.8483 16.1697 11.8561 14.3425C10.0248 14.3241 8.24453 14.6131 6.5152 15.2093C4.94207 15.8301 3.73175 16.8687 2.88432 18.3248C2.56873 18.8753 2.27201 19.4375 1.99417 20.0114C1.74498 20.2769 1.44045 20.3628 1.0806 20.2691C0.86977 20.1832 0.72141 20.0348 0.63552 19.824C0.522836 17.7259 0.679001 15.6489 1.10402 13.5929C1.97112 10.1648 4.13403 8.06436 7.59275 7.29161C8.99563 6.96985 10.4167 6.80587 11.8561 6.79969C11.8483 4.95684 11.8561 3.11409 11.8795 1.27139C11.9743 1.05962 12.1226 0.903458 12.3246 0.802885ZM2.25185 16.4508C2.29267 15.177 2.53472 13.9432 2.97802 12.7496C3.63495 11.1869 4.73593 10.0547 6.28095 9.35302C7.43847 8.87786 8.64097 8.58111 9.8884 8.46286C10.8871 8.38341 11.8865 8.32091 12.8868 8.27547C13.0976 8.18959 13.246 8.04121 13.3319 7.83039C13.3475 6.33119 13.3631 4.83199 13.3787 3.33279C15.9853 5.73273 18.5855 8.13773 21.1793 10.5477C18.5855 12.9577 15.9853 15.3627 13.3787 17.7626C13.3631 16.2634 13.3475 14.7642 13.3319 13.265C13.246 13.0542 13.0976 12.9058 12.8868 12.8199C10.6172 12.7015 8.39969 12.9826 6.2341 13.6632C4.63974 14.2203 3.31234 15.1495 2.25185 16.4508Z" fill="#5200FF" stroke="#5200FF" stroke-width="0.5"/>
</svg>
