<svg width="26" height="24" viewBox="0 0 26 24" fill="none" xmlns="http://www.w3.org/2000/svg">
<path d="M22.7416 8.41008L22.3143 8.1724C22.248 8.13549 22.2154 8.11697 22.1833 8.09777C21.8647 7.90693 21.5962 7.64324 21.4002 7.32777C21.3805 7.29602 21.3619 7.26274 21.3239 7.19694C21.286 7.13124 21.2667 7.09794 21.2491 7.06498C21.0733 6.73677 20.9782 6.37101 20.9725 5.99874C20.972 5.96131 20.9721 5.92307 20.9734 5.84705L20.9817 5.35091C20.9951 4.55696 21.0018 4.15876 20.8902 3.80139C20.7911 3.48396 20.6253 3.19158 20.4039 2.94346C20.1536 2.66299 19.8072 2.4629 19.1136 2.06322L18.5375 1.73124C17.8458 1.33268 17.4999 1.13333 17.1327 1.05733C16.8079 0.990094 16.4726 0.99321 16.1489 1.06587C15.7836 1.14789 15.442 1.35243 14.7592 1.76129L14.7553 1.76314L14.3425 2.01031C14.2772 2.04939 14.2442 2.06909 14.2115 2.08728C13.8868 2.26779 13.5244 2.3676 13.1531 2.37951C13.1157 2.38071 13.0776 2.38071 13.0015 2.38071C12.9259 2.38071 12.8862 2.38071 12.8489 2.37951C12.4768 2.36754 12.1136 2.26719 11.7884 2.08594C11.7557 2.06767 11.7232 2.04782 11.6578 2.00855L11.2424 1.75915C10.5549 1.34642 10.2107 1.13975 9.84332 1.05733C9.51832 0.98441 9.18193 0.982392 8.85589 1.05049C8.48775 1.12739 8.14173 1.32821 7.44968 1.72987L7.4466 1.73124L6.87766 2.06144L6.87137 2.0653C6.18555 2.46334 5.84181 2.66284 5.59365 2.94216C5.37343 3.19003 5.20882 3.48195 5.1103 3.79854C4.99893 4.1564 5.00487 4.55546 5.01829 5.35315L5.02662 5.84858C5.02789 5.92361 5.03007 5.96089 5.02953 5.99779C5.02401 6.37082 4.92767 6.73733 4.75137 7.06612C4.73393 7.09863 4.71515 7.13115 4.67763 7.1961C4.64009 7.2611 4.6219 7.29342 4.60244 7.32479C4.40559 7.64195 4.13583 7.90717 3.81522 8.09834C3.78351 8.11725 3.75009 8.13544 3.68442 8.17183L3.26259 8.40559C2.56076 8.79452 2.20993 8.98916 1.95465 9.26614C1.72881 9.51118 1.55821 9.80182 1.45407 10.1184C1.33635 10.4762 1.33645 10.8774 1.33828 11.6798L1.33976 12.3356C1.34158 13.1327 1.34406 13.5309 1.46204 13.8863C1.56642 14.2007 1.73577 14.4896 1.96035 14.7332C2.21418 15.0085 2.56153 15.2019 3.25803 15.5894L3.6761 15.822C3.74725 15.8615 3.78305 15.8811 3.81736 15.9017C4.13506 16.0931 4.40271 16.3575 4.59788 16.6729C4.61896 16.707 4.6392 16.7423 4.67968 16.813C4.71965 16.8829 4.7401 16.9178 4.75859 16.9528C4.92971 17.2768 5.02133 17.6367 5.02757 18.003C5.02825 18.0426 5.02767 18.0827 5.02631 18.1631L5.01829 18.6386C5.00477 19.439 4.99889 19.8397 5.11091 20.1985C5.21001 20.516 5.37565 20.8083 5.59706 21.0564C5.84734 21.3369 6.19431 21.5369 6.88792 21.9366L7.46391 22.2685C8.15557 22.667 8.50127 22.8662 8.86847 22.9422C9.19332 23.0094 9.52875 23.0068 9.85243 22.9341C10.2183 22.852 10.5611 22.6467 11.2458 22.2367L11.6586 21.9895C11.7239 21.9504 11.757 21.9308 11.7897 21.9126C12.1144 21.7321 12.4764 21.6318 12.8477 21.6199C12.8851 21.6187 12.9232 21.6187 12.9993 21.6187C13.0756 21.6187 13.1136 21.6187 13.1511 21.6199C13.5232 21.6319 13.8875 21.7325 14.2126 21.9138C14.2412 21.9297 14.2699 21.9469 14.3202 21.9772L14.7591 22.2406C15.4466 22.6534 15.7902 22.8595 16.1575 22.9419C16.4825 23.0148 16.8192 23.0178 17.1452 22.9497C17.5133 22.8728 17.86 22.6716 18.5517 22.2702L19.1292 21.935C19.8154 21.5367 20.1595 21.337 20.4078 21.0576C20.628 20.8097 20.7928 20.5179 20.8913 20.2013C21.0019 19.8461 20.9952 19.4501 20.982 18.6639L20.9734 18.1512C20.9721 18.0761 20.972 18.0388 20.9725 18.0019C20.978 17.6289 21.0728 17.2621 21.2491 16.9333C21.2665 16.9009 21.2854 16.8681 21.3228 16.8033C21.3604 16.7384 21.3798 16.706 21.3993 16.6746C21.5961 16.3574 21.8661 16.092 22.1867 15.9008C22.2181 15.8821 22.2503 15.8643 22.3144 15.8287L22.3166 15.8277L22.7385 15.5939C23.4403 15.205 23.7918 15.0102 24.0471 14.7332C24.2729 14.4882 24.4433 14.1979 24.5474 13.8814C24.6644 13.5257 24.6635 13.1268 24.6617 12.3337L24.6602 11.6639C24.6584 10.8668 24.6574 10.4686 24.5394 10.1132C24.4351 9.79882 24.2648 9.50988 24.0402 9.26632C23.7866 8.99129 23.4388 8.7978 22.7436 8.41108L22.7416 8.41008Z" stroke="#5200FF" stroke-width="2" stroke-linecap="round" stroke-linejoin="round"/>
<path d="M8.33372 12C8.33372 14.5773 10.4231 16.6666 13.0004 16.6666C15.5777 16.6666 17.6671 14.5773 17.6671 12C17.6671 9.42263 15.5777 7.33329 13.0004 7.33329C10.4231 7.33329 8.33372 9.42263 8.33372 12Z" stroke="#5200FF" stroke-width="2" stroke-linecap="round" stroke-linejoin="round"/>
</svg>
