<svg width="24" height="24" viewBox="0 0 24 24" fill="none" xmlns="http://www.w3.org/2000/svg">
<path d="M6.7334 7.88C6.7334 10.6414 8.97197 12.88 11.7334 12.88C14.4948 12.88 16.7334 10.6414 16.7334 7.88C16.7334 5.11858 14.4948 2.88 11.7334 2.88C8.97197 2.88 6.7334 5.11858 6.7334 7.88Z" fill="#5200FF" stroke="#5200FF" stroke-width="2" stroke-linecap="square" stroke-linejoin="round"/>
<path d="M21.0136 22.875H4.01362C4.01362 22.875 3.98298 22.2643 4.01362 21.875C4.32383 17.9334 8.55991 16.375 12.5137 16.375C16.4674 16.375 20.7034 17.9334 21.0136 21.875C21.0443 22.2643 21.0136 22.875 21.0136 22.875Z" fill="#5200FF"/>
<path d="M4.01362 22.875L3.01487 22.9251C3.04157 23.4572 3.48081 23.875 4.01362 23.875V22.875ZM21.0136 22.875V23.875C21.5464 23.875 21.9857 23.4573 22.0124 22.9251L21.0136 22.875ZM21.0136 21.875L20.0167 21.9535V21.9535L21.0136 21.875ZM4.01362 21.875L5.01054 21.9535L4.01362 21.875ZM4.01362 23.875H21.0136V21.875H4.01362V23.875ZM21.0136 22.875C22.0124 22.9251 22.0124 22.9251 22.0124 22.925C22.0124 22.925 22.0124 22.925 22.0124 22.9249C22.0124 22.9249 22.0124 22.9248 22.0124 22.9247C22.0124 22.9245 22.0124 22.9243 22.0124 22.924C22.0124 22.9235 22.0125 22.9228 22.0125 22.922C22.0126 22.9204 22.0127 22.9182 22.0128 22.9155C22.0131 22.91 22.0134 22.9023 22.0139 22.8925C22.0148 22.873 22.0159 22.8454 22.0172 22.8113C22.0198 22.7432 22.0229 22.6483 22.0249 22.54C22.0289 22.3327 22.0299 22.0423 22.0105 21.7965L20.0167 21.9535C20.028 22.0971 20.029 22.3066 20.0253 22.502C20.0235 22.595 20.0209 22.6771 20.0186 22.7357C20.0175 22.7649 20.0166 22.788 20.0159 22.8035C20.0155 22.8112 20.0153 22.817 20.0151 22.8206C20.015 22.8224 20.0149 22.8237 20.0149 22.8244C20.0149 22.8248 20.0149 22.825 20.0149 22.8251C20.0149 22.8251 20.0149 22.8251 20.0149 22.8251C20.0149 22.8251 20.0149 22.8251 20.0149 22.825C20.0149 22.825 20.0149 22.825 20.0149 22.825C20.0149 22.8249 20.0149 22.8249 21.0136 22.875ZM22.0105 21.7965C21.8234 19.4183 20.4299 17.7782 18.6147 16.7723C16.8304 15.7834 14.6015 15.375 12.5137 15.375V17.375C14.3796 17.375 16.2455 17.7458 17.6452 18.5216C19.014 19.2802 19.8937 20.3901 20.0167 21.9535L22.0105 21.7965ZM12.5137 15.375C10.4258 15.375 8.1969 15.7834 6.41258 16.7723C4.59739 17.7782 3.20388 19.4183 3.0167 21.7965L5.01054 21.9535C5.13358 20.3901 6.01321 19.2802 7.38206 18.5216C8.78177 17.7458 10.6478 17.375 12.5137 17.375V15.375ZM3.0167 21.7965C2.99736 22.0423 2.99836 22.3327 3.00231 22.54C3.00437 22.6483 3.00745 22.7432 3.01002 22.8113C3.01131 22.8454 3.01248 22.873 3.01335 22.8925C3.01379 22.9023 3.01415 22.91 3.01441 22.9155C3.01454 22.9182 3.01464 22.9204 3.01472 22.922C3.01476 22.9228 3.01479 22.9235 3.01482 22.924C3.01483 22.9243 3.01484 22.9245 3.01485 22.9247C3.01486 22.9248 3.01486 22.9249 3.01487 22.9249C3.01487 22.925 3.01487 22.925 3.01487 22.925C3.01487 22.9251 3.01487 22.9251 4.01362 22.875C5.01236 22.8249 5.01236 22.8249 5.01237 22.825C5.01237 22.825 5.01237 22.825 5.01237 22.825C5.01237 22.8251 5.01237 22.8251 5.01237 22.8251C5.01237 22.8251 5.01237 22.8251 5.01237 22.8251C5.01237 22.825 5.01236 22.8248 5.01234 22.8244C5.0123 22.8237 5.01224 22.8224 5.01216 22.8206C5.01198 22.817 5.01171 22.8112 5.01137 22.8035C5.01068 22.788 5.0097 22.7649 5.0086 22.7357C5.00638 22.6771 5.00372 22.595 5.00195 22.502C4.99823 22.3066 4.99923 22.0971 5.01054 21.9535L3.0167 21.7965Z" fill="#5200FF"/>
</svg>
