<svg width="22" height="17" viewBox="0 0 22 17" fill="none" xmlns="http://www.w3.org/2000/svg">
<path d="M3 13H2.5C1.67157 13 1 13.6716 1 14.5C1 15.3284 1.67157 16 2.5 16H19.5C20.3284 16 21 15.3284 21 14.5C21 13.6716 20.3284 13 19.5 13H19M3 13H19M3 13V4.2002C3 3.08009 3 2.51962 3.21799 2.0918C3.40973 1.71547 3.71547 1.40973 4.0918 1.21799C4.51962 1 5.08009 1 6.2002 1H15.8002C16.9203 1 17.4796 1 17.9074 1.21799C18.2837 1.40973 18.5905 1.71547 18.7822 2.0918C19 2.5192 19 3.07899 19 4.19691V13" stroke="white" stroke-width="2" stroke-linecap="round" stroke-linejoin="round"/>
</svg>
